<svg xmlns="http://www.w3.org/2000/svg" width="420mm" height="297mm" viewBox="0 0 420 297" data-view-id="P82-A201"><rect x="0.0000" y="0.0000" width="420.0000" height="297.0000" fill="#fff" stroke="none" stroke-width="0.18"/>
<polyline points="10.0000,34.0000 410.0000,34.0000" fill="none" stroke="#203936" stroke-width="0.45" data-object-id="PAPER-CHECK-400MM"/>
<polyline points="405.0000,53.0000 405.0000,45.0000 403.5000,47.0000 405.0000,45.0000 406.5000,47.0000" fill="none" stroke="#203936" stroke-width="0.3"/>
<polyline points="10.0000,274.0000 410.0000,274.0000" fill="none" stroke="#203936" stroke-width="0.45"/>
<polygon points="84.7500,55.5000 226.2500,55.5000 226.2500,144.5000 164.7500,144.5000 164.7500,239.5000 84.7500,239.5000" fill="#f6f6f2" stroke="#203936" stroke-width="0.55" data-object-id="P26-A-R01"/>
<polyline points="112.2500,55.5000 142.2500,55.5000" fill="none" stroke="#fff" stroke-width="1.1"/>
<polyline points="112.2500,55.5000 142.2500,55.5000" fill="none" stroke="#276576" stroke-width="0.28"/>
<polyline points="187.2500,55.5000 217.2500,55.5000" fill="none" stroke="#fff" stroke-width="1.1"/>
<polyline points="187.2500,55.5000 217.2500,55.5000" fill="none" stroke="#276576" stroke-width="0.28"/>
<polyline points="226.2500,115.0000 226.2500,144.5000" fill="none" stroke="#fff" stroke-width="1.1"/>
<polyline points="226.2500,115.0000 226.2500,144.5000" fill="none" stroke="#276576" stroke-width="0.28"/>
<polyline points="218.2500,144.5000 226.2500,144.5000" fill="none" stroke="#fff" stroke-width="1.1"/>
<polyline points="218.2500,144.5000 226.2500,144.5000" fill="none" stroke="#276576" stroke-width="0.28"/>
<polyline points="84.7500,61.7500 84.7500,229.2500" fill="none" stroke="#fff" stroke-width="1.1"/>
<polyline points="84.7500,61.7500 84.7500,229.2500" fill="none" stroke="#276576" stroke-width="0.28"/>
<rect x="211.2500" y="70.5000" width="15.0000" height="15.0000" fill="none" stroke="#276576" stroke-width="0.23" data-object-id="P26-A-HOB"/>
<rect x="211.2500" y="85.5000" width="15.0000" height="15.0000" fill="none" stroke="#276576" stroke-width="0.23" data-object-id="P78-K-FREEZER-TOP"/>
<rect x="144.7500" y="55.5000" width="15.0000" height="15.0000" fill="#dfe8e5" stroke="#276576" stroke-width="0.23" data-object-id="P26-A-DW"/>
<rect x="159.7500" y="55.5000" width="7.5000" height="15.0000" fill="#dfe8e5" stroke="#276576" stroke-width="0.23" data-object-id="P26-A-WASTE"/>
<rect x="167.2500" y="55.5000" width="17.5000" height="15.0000" fill="#dfe8e5" stroke="#276576" stroke-width="0.23" data-object-id="P26-A-SINK"/>
<rect x="184.7500" y="55.5000" width="26.5000" height="15.0000" fill="#dfe8e5" stroke="#276576" stroke-width="0.23" data-object-id="P26-A-PREP"/>
<rect x="211.2500" y="55.5000" width="15.0000" height="15.0000" fill="#dfe8e5" stroke="#276576" stroke-width="0.23" data-object-id="P26-A-CORNER"/>
<rect x="211.2500" y="70.5000" width="15.0000" height="15.0000" fill="#dfe8e5" stroke="#276576" stroke-width="0.23" data-object-id="P26-A-OVEN"/>
<polyline points="218.7500,79.0000 218.7500,74.5000" fill="none" stroke="#6d7a77" stroke-width="0.12"/>
<rect x="211.2500" y="100.5000" width="15.0000" height="14.5000" fill="#dfe8e5" stroke="#276576" stroke-width="0.23" data-object-id="P26-A-FR"/>
<rect x="103.5000" y="162.0000" width="42.5000" height="22.5000" fill="#dfe8e5" stroke="#276576" stroke-width="0.23" data-object-id="P26-A-S01"/>
<rect x="157.2500" y="159.5000" width="7.5000" height="67.5000" fill="#dfe8e5" stroke="#276576" stroke-width="0.23" data-object-id="P26-A-LIV-ST"/>
<rect x="113.5000" y="194.5000" width="22.5000" height="12.5000" fill="#dfe8e5" stroke="#276576" stroke-width="0.23" data-object-id="P26-A-CT"/>
<rect x="100.9500" y="237.0000" width="47.6000" height="2.5000" fill="none" stroke="#276576" stroke-width="0.23" stroke-dasharray="1.8 1" data-object-id="P26-A-TV"/>
<rect x="172.2500" y="93.0000" width="16.5000" height="26.2500" fill="#dfe8e5" stroke="#276576" stroke-width="0.23" data-object-id="P26-A-ISL01"/>
<rect x="162.2500" y="94.2500" width="10.0000" height="10.0000" fill="#dfe8e5" stroke="#276576" stroke-width="0.23" data-object-id="P26-A-BAR01"/>
<rect x="162.2500" y="108.0000" width="10.0000" height="10.0000" fill="#dfe8e5" stroke="#276576" stroke-width="0.23" data-object-id="P26-A-BAR02"/>
<rect x="102.2500" y="105.5000" width="45.0000" height="22.5000" fill="#dfe8e5" stroke="#276576" stroke-width="0.23" data-object-id="P26-A-T01"/>
<rect x="97.2500" y="229.5000" width="60.0000" height="10.0000" fill="#dfe8e5" stroke="#276576" stroke-width="0.23" data-object-id="P60-MEDIA-BASE"/>
<rect x="157.2500" y="227.0000" width="7.5000" height="12.5000" fill="#dfe8e5" stroke="#276576" stroke-width="0.23" data-object-id="P60-CORNER-BASE"/>
<rect x="215.0000" y="70.5000" width="11.2500" height="15.0000" fill="none" stroke="#276576" stroke-width="0.23" stroke-dasharray="1.8 1" data-object-id="P68-K-HOOD"/>
<polyline points="220.6250,79.0000 220.6250,83.5000" fill="none" stroke="#6d7a77" stroke-width="0.12"/>
<rect x="104.1250" y="93.0000" width="11.2500" height="12.5000" fill="#dfe8e5" stroke="#276576" stroke-width="0.23" data-object-id="P58-GRAPHIC-DINING-N1"/>
<rect x="119.1250" y="93.0000" width="11.2500" height="12.5000" fill="#dfe8e5" stroke="#276576" stroke-width="0.23" data-object-id="P58-GRAPHIC-DINING-N2"/>
<rect x="134.1250" y="93.0000" width="11.2500" height="12.5000" fill="#dfe8e5" stroke="#276576" stroke-width="0.23" data-object-id="P58-GRAPHIC-DINING-N3"/>
<rect x="104.1250" y="128.0000" width="11.2500" height="12.5000" fill="#dfe8e5" stroke="#276576" stroke-width="0.23" data-object-id="P58-GRAPHIC-DINING-S1"/>
<rect x="119.1250" y="128.0000" width="11.2500" height="12.5000" fill="#dfe8e5" stroke="#276576" stroke-width="0.23" data-object-id="P58-GRAPHIC-DINING-S2"/>
<rect x="134.1250" y="128.0000" width="11.2500" height="12.5000" fill="#dfe8e5" stroke="#276576" stroke-width="0.23" data-object-id="P58-GRAPHIC-DINING-S3"/>
<rect x="211.2500" y="85.5000" width="15.0000" height="14.5000" fill="#dfe8e5" stroke="#276576" stroke-width="0.23" data-object-id="P78-K-FREEZER"/>
<polyline points="218.7500,93.7500 218.7500,89.2500" fill="none" stroke="#6d7a77" stroke-width="0.12"/>
<polyline points="83.7500,47.5000 227.2500,47.5000" fill="none" stroke="#203936" stroke-width="0.16"/>
<polyline points="84.7500,54.5000 84.7500,46.3000" fill="none" stroke="#6d7a77" stroke-width="0.12"/>
<polyline points="83.7500,48.5000 85.7500,46.5000" fill="none" stroke="#203936" stroke-width="0.26"/>
<polyline points="112.2500,54.5000 112.2500,46.3000" fill="none" stroke="#6d7a77" stroke-width="0.12"/>
<polyline points="111.2500,48.5000 113.2500,46.5000" fill="none" stroke="#203936" stroke-width="0.26"/>
<polyline points="142.2500,54.5000 142.2500,46.3000" fill="none" stroke="#6d7a77" stroke-width="0.12"/>
<polyline points="141.2500,48.5000 143.2500,46.5000" fill="none" stroke="#203936" stroke-width="0.26"/>
<polyline points="187.2500,54.5000 187.2500,46.3000" fill="none" stroke="#6d7a77" stroke-width="0.12"/>
<polyline points="186.2500,48.5000 188.2500,46.5000" fill="none" stroke="#203936" stroke-width="0.26"/>
<polyline points="217.2500,54.5000 217.2500,46.3000" fill="none" stroke="#6d7a77" stroke-width="0.12"/>
<polyline points="216.2500,48.5000 218.2500,46.5000" fill="none" stroke="#203936" stroke-width="0.26"/>
<polyline points="226.2500,54.5000 226.2500,46.3000" fill="none" stroke="#6d7a77" stroke-width="0.12"/>
<polyline points="225.2500,48.5000 227.2500,46.5000" fill="none" stroke="#203936" stroke-width="0.26"/>
<polyline points="83.7500,39.5000 227.2500,39.5000" fill="none" stroke="#203936" stroke-width="0.16"/>
<polyline points="84.7500,54.5000 84.7500,38.3000" fill="none" stroke="#6d7a77" stroke-width="0.12"/>
<polyline points="83.7500,40.5000 85.7500,38.5000" fill="none" stroke="#203936" stroke-width="0.26"/>
<polyline points="226.2500,54.5000 226.2500,38.3000" fill="none" stroke="#6d7a77" stroke-width="0.12"/>
<polyline points="225.2500,40.5000 227.2500,38.5000" fill="none" stroke="#203936" stroke-width="0.26"/>
<polyline points="155.5000,38.4000 155.5000,42.9000" fill="none" stroke="#6d7a77" stroke-width="0.12"/>
<polyline points="234.2500,54.5000 234.2500,145.5000" fill="none" stroke="#203936" stroke-width="0.16"/>
<polyline points="227.2500,55.5000 235.4500,55.5000" fill="none" stroke="#6d7a77" stroke-width="0.12"/>
<polyline points="233.2500,56.5000 235.2500,54.5000" fill="none" stroke="#203936" stroke-width="0.26"/>
<polyline points="227.2500,115.0000 235.4500,115.0000" fill="none" stroke="#6d7a77" stroke-width="0.12"/>
<polyline points="233.2500,116.0000 235.2500,114.0000" fill="none" stroke="#203936" stroke-width="0.26"/>
<polyline points="227.2500,144.5000 235.4500,144.5000" fill="none" stroke="#6d7a77" stroke-width="0.12"/>
<polyline points="233.2500,145.5000 235.2500,143.5000" fill="none" stroke="#203936" stroke-width="0.26"/>
<polyline points="242.2500,54.5000 242.2500,145.5000" fill="none" stroke="#203936" stroke-width="0.16"/>
<polyline points="227.2500,55.5000 243.4500,55.5000" fill="none" stroke="#6d7a77" stroke-width="0.12"/>
<polyline points="241.2500,56.5000 243.2500,54.5000" fill="none" stroke="#203936" stroke-width="0.26"/>
<polyline points="227.2500,144.5000 243.4500,144.5000" fill="none" stroke="#6d7a77" stroke-width="0.12"/>
<polyline points="241.2500,145.5000 243.2500,143.5000" fill="none" stroke="#203936" stroke-width="0.26"/>
<polyline points="163.7500,152.5000 227.2500,152.5000" fill="none" stroke="#203936" stroke-width="0.16"/>
<polyline points="164.7500,145.5000 164.7500,153.7000" fill="none" stroke="#6d7a77" stroke-width="0.12"/>
<polyline points="163.7500,153.5000 165.7500,151.5000" fill="none" stroke="#203936" stroke-width="0.26"/>
<polyline points="218.2500,145.5000 218.2500,153.7000" fill="none" stroke="#6d7a77" stroke-width="0.12"/>
<polyline points="217.2500,153.5000 219.2500,151.5000" fill="none" stroke="#203936" stroke-width="0.26"/>
<polyline points="226.2500,145.5000 226.2500,153.7000" fill="none" stroke="#6d7a77" stroke-width="0.12"/>
<polyline points="225.2500,153.5000 227.2500,151.5000" fill="none" stroke="#203936" stroke-width="0.26"/>
<polyline points="222.2500,151.4000 222.2500,155.9000" fill="none" stroke="#6d7a77" stroke-width="0.12"/>
<polyline points="163.7500,160.5000 227.2500,160.5000" fill="none" stroke="#203936" stroke-width="0.16"/>
<polyline points="164.7500,145.5000 164.7500,161.7000" fill="none" stroke="#6d7a77" stroke-width="0.12"/>
<polyline points="163.7500,161.5000 165.7500,159.5000" fill="none" stroke="#203936" stroke-width="0.26"/>
<polyline points="226.2500,145.5000 226.2500,161.7000" fill="none" stroke="#6d7a77" stroke-width="0.12"/>
<polyline points="225.2500,161.5000 227.2500,159.5000" fill="none" stroke="#203936" stroke-width="0.26"/>
<polyline points="172.7500,143.5000 172.7500,240.5000" fill="none" stroke="#203936" stroke-width="0.16"/>
<polyline points="165.7500,144.5000 173.9500,144.5000" fill="none" stroke="#6d7a77" stroke-width="0.12"/>
<polyline points="171.7500,145.5000 173.7500,143.5000" fill="none" stroke="#203936" stroke-width="0.26"/>
<polyline points="165.7500,239.5000 173.9500,239.5000" fill="none" stroke="#6d7a77" stroke-width="0.12"/>
<polyline points="171.7500,240.5000 173.7500,238.5000" fill="none" stroke="#203936" stroke-width="0.26"/>
<polyline points="83.7500,247.5000 165.7500,247.5000" fill="none" stroke="#203936" stroke-width="0.16"/>
<polyline points="84.7500,240.5000 84.7500,248.7000" fill="none" stroke="#6d7a77" stroke-width="0.12"/>
<polyline points="83.7500,248.5000 85.7500,246.5000" fill="none" stroke="#203936" stroke-width="0.26"/>
<polyline points="164.7500,240.5000 164.7500,248.7000" fill="none" stroke="#6d7a77" stroke-width="0.12"/>
<polyline points="163.7500,248.5000 165.7500,246.5000" fill="none" stroke="#203936" stroke-width="0.26"/>
<polyline points="76.7500,54.5000 76.7500,240.5000" fill="none" stroke="#203936" stroke-width="0.16"/>
<polyline points="83.7500,55.5000 75.5500,55.5000" fill="none" stroke="#6d7a77" stroke-width="0.12"/>
<polyline points="75.7500,56.5000 77.7500,54.5000" fill="none" stroke="#203936" stroke-width="0.26"/>
<polyline points="83.7500,61.7500 75.5500,61.7500" fill="none" stroke="#6d7a77" stroke-width="0.12"/>
<polyline points="75.7500,62.7500 77.7500,60.7500" fill="none" stroke="#203936" stroke-width="0.26"/>
<polyline points="83.7500,229.2500 75.5500,229.2500" fill="none" stroke="#6d7a77" stroke-width="0.12"/>
<polyline points="75.7500,230.2500 77.7500,228.2500" fill="none" stroke="#203936" stroke-width="0.26"/>
<polyline points="83.7500,239.5000 75.5500,239.5000" fill="none" stroke="#6d7a77" stroke-width="0.12"/>
<polyline points="75.7500,240.5000 77.7500,238.5000" fill="none" stroke="#203936" stroke-width="0.26"/>
<polyline points="68.7500,54.5000 68.7500,240.5000" fill="none" stroke="#203936" stroke-width="0.16"/>
<polyline points="83.7500,55.5000 67.5500,55.5000" fill="none" stroke="#6d7a77" stroke-width="0.12"/>
<polyline points="67.7500,56.5000 69.7500,54.5000" fill="none" stroke="#203936" stroke-width="0.26"/>
<polyline points="83.7500,239.5000 67.5500,239.5000" fill="none" stroke="#6d7a77" stroke-width="0.12"/>
<polyline points="67.7500,240.5000 69.7500,238.5000" fill="none" stroke="#203936" stroke-width="0.26"/>
<text id="P82-A201-TXT-1" x="10.0000" y="10.0000" font-family="Arial" font-size="2.8" text-anchor="start" fill="#6d7a77">DBR-P11 / P82 / 08.09.2026 / РАСШИРЕННЫЙ ДОМ · ПОТОЛОК И КУХНЯ P78</text>
<text id="P82-A201-TXT-2" x="10.0000" y="20.0000" font-family="Arial" font-size="5.0" text-anchor="start" fill="#203936" font-weight="bold">Кухня, столовая и гостиная: стены и мебель</text>
<text id="P82-A201-TXT-3" x="10.0000" y="29.0000" font-family="Arial" font-size="2.8" text-anchor="start" fill="#203936">Размеры новой геометрии. Номинальные контрольные грани; не монтажный чертёж.</text>
<text id="P82-A201-TXT-4" x="405.0000" y="43.0000" font-family="Arial" font-size="3" text-anchor="middle" fill="#203936" font-weight="bold">С</text>
<text id="P82-A201-TXT-5" x="10.0000" y="279.0000" font-family="Arial" font-size="2.5" text-anchor="start" fill="#8e462d" font-weight="bold">ДЛЯ СОГЛАСОВАНИЯ / НЕ ДЛЯ СТРОИТЕЛЬСТВА</text>
<text id="P82-A201-TXT-6" x="10.0000" y="285.0000" font-family="Arial" font-size="2.5" text-anchor="start" fill="#203936">Стены 400/200 — резервы. Контур P76 сохранён; потолок и кухня P78. Узлы и заказ: TBC.</text>
<text id="P82-A201-TXT-7" x="10.0000" y="291.0000" font-family="Arial" font-size="2.5" text-anchor="start" fill="#6d7a77">Подготовка: Codex / AI. Проверяющий и утверждающий специалист: не назначены.</text>
<text id="P82-A201-TXT-8" x="356.0000" y="279.0000" font-family="Arial" font-size="2.8" text-anchor="start" fill="#203936" font-weight="bold">P82-A201</text>
<text id="P82-A201-TXT-9" x="356.0000" y="286.0000" font-family="Arial" font-size="2.6" text-anchor="start" fill="#203936">М 1:40 / мм / A3</text>
<rect x="124.3056" y="56.9620" width="5.8889" height="3.4120" fill="#fff" stroke="none"/>
<text id="P82-A201-TXT-10" x="127.2500" y="59.5000" font-family="Arial" font-size="2.6" text-anchor="middle" fill="#276576">D02</text>
<rect x="199.0102" y="56.9620" width="6.4796" height="3.4120" fill="#fff" stroke="none"/>
<text id="P82-A201-TXT-11" x="202.2500" y="59.5000" font-family="Arial" font-size="2.6" text-anchor="middle" fill="#276576">W06</text>
<rect x="222.2691" y="131.2120" width="7.9618" height="3.4120" fill="#fff" stroke="none"/>
<text id="P82-A201-TXT-12" x="226.2500" y="133.7500" font-family="Arial" font-size="2.6" text-anchor="middle" fill="#276576">OC01</text>
<rect x="219.3056" y="145.9620" width="5.8889" height="3.4120" fill="#fff" stroke="none"/>
<text id="P82-A201-TXT-13" x="222.2500" y="148.5000" font-family="Arial" font-size="2.6" text-anchor="middle" fill="#276576">D06</text>
<rect x="81.5102" y="146.9620" width="6.4796" height="3.4120" fill="#fff" stroke="none"/>
<text id="P82-A201-TXT-14" x="84.7500" y="149.5000" font-family="Arial" font-size="2.6" text-anchor="middle" fill="#276576">W01</text>
<rect x="215.7773" y="76.2860" width="5.9454" height="3.6360" fill="#fff" stroke="none"/>
<text id="P82-A201-TXT-15" x="218.7500" y="79.0000" font-family="Arial" font-size="2.8" text-anchor="middle" fill="#203936">F26</text>
<rect x="215.7773" y="91.2860" width="5.9454" height="3.6360" fill="#fff" stroke="none"/>
<text id="P82-A201-TXT-16" x="218.7500" y="94.0000" font-family="Arial" font-size="2.8" text-anchor="middle" fill="#203936">F60</text>
<rect x="149.2773" y="61.2860" width="5.9454" height="3.6360" fill="#fff" stroke="none"/>
<text id="P82-A201-TXT-17" x="152.2500" y="64.0000" font-family="Arial" font-size="2.8" text-anchor="middle" fill="#203936">F21</text>
<rect x="160.5273" y="61.2860" width="5.9454" height="3.6360" fill="#fff" stroke="none"/>
<text id="P82-A201-TXT-18" x="163.5000" y="64.0000" font-family="Arial" font-size="2.8" text-anchor="middle" fill="#203936">F22</text>
<rect x="173.0273" y="61.2860" width="5.9454" height="3.6360" fill="#fff" stroke="none"/>
<text id="P82-A201-TXT-19" x="176.0000" y="64.0000" font-family="Arial" font-size="2.8" text-anchor="middle" fill="#203936">F23</text>
<rect x="195.0273" y="61.2860" width="5.9454" height="3.6360" fill="#fff" stroke="none"/>
<text id="P82-A201-TXT-20" x="198.0000" y="64.0000" font-family="Arial" font-size="2.8" text-anchor="middle" fill="#203936">F24</text>
<rect x="215.7773" y="61.2860" width="5.9454" height="3.6360" fill="#fff" stroke="none"/>
<text id="P82-A201-TXT-21" x="218.7500" y="64.0000" font-family="Arial" font-size="2.8" text-anchor="middle" fill="#203936">F25</text>
<rect x="215.7773" y="71.7860" width="5.9454" height="3.6360" fill="#fff" stroke="none"/>
<text id="P82-A201-TXT-22" x="218.7500" y="74.5000" font-family="Arial" font-size="2.8" text-anchor="middle" fill="#203936">F27</text>
<rect x="215.7773" y="106.0360" width="5.9454" height="3.6360" fill="#fff" stroke="none"/>
<text id="P82-A201-TXT-23" x="218.7500" y="108.7500" font-family="Arial" font-size="2.8" text-anchor="middle" fill="#203936">F28</text>
<rect x="121.7773" y="171.5360" width="5.9454" height="3.6360" fill="#fff" stroke="none"/>
<text id="P82-A201-TXT-24" x="124.7500" y="174.2500" font-family="Arial" font-size="2.8" text-anchor="middle" fill="#203936">F29</text>
<rect x="158.0273" y="191.5360" width="5.9454" height="3.6360" fill="#fff" stroke="none"/>
<text id="P82-A201-TXT-25" x="161.0000" y="194.2500" font-family="Arial" font-size="2.8" text-anchor="middle" fill="#203936">F30</text>
<rect x="121.7773" y="199.0360" width="5.9454" height="3.6360" fill="#fff" stroke="none"/>
<text id="P82-A201-TXT-26" x="124.7500" y="201.7500" font-family="Arial" font-size="2.8" text-anchor="middle" fill="#203936">F31</text>
<rect x="121.7773" y="236.5360" width="5.9454" height="3.6360" fill="#fff" stroke="none"/>
<text id="P82-A201-TXT-27" x="124.7500" y="239.2500" font-family="Arial" font-size="2.8" text-anchor="middle" fill="#203936">F32</text>
<rect x="177.5273" y="104.4110" width="5.9454" height="3.6360" fill="#fff" stroke="none"/>
<text id="P82-A201-TXT-28" x="180.5000" y="107.1250" font-family="Arial" font-size="2.8" text-anchor="middle" fill="#203936">F33</text>
<rect x="164.2773" y="97.5360" width="5.9454" height="3.6360" fill="#fff" stroke="none"/>
<text id="P82-A201-TXT-29" x="167.2500" y="100.2500" font-family="Arial" font-size="2.8" text-anchor="middle" fill="#203936">F34</text>
<rect x="164.2773" y="111.2860" width="5.9454" height="3.6360" fill="#fff" stroke="none"/>
<text id="P82-A201-TXT-30" x="167.2500" y="114.0000" font-family="Arial" font-size="2.8" text-anchor="middle" fill="#203936">F35</text>
<rect x="121.7773" y="115.0360" width="5.9454" height="3.6360" fill="#fff" stroke="none"/>
<text id="P82-A201-TXT-31" x="124.7500" y="117.7500" font-family="Arial" font-size="2.8" text-anchor="middle" fill="#203936">F36</text>
<rect x="124.2773" y="232.7860" width="5.9454" height="3.6360" fill="#fff" stroke="none"/>
<text id="P82-A201-TXT-32" x="127.2500" y="235.5000" font-family="Arial" font-size="2.8" text-anchor="middle" fill="#203936">F37</text>
<rect x="158.0273" y="231.5360" width="5.9454" height="3.6360" fill="#fff" stroke="none"/>
<text id="P82-A201-TXT-33" x="161.0000" y="234.2500" font-family="Arial" font-size="2.8" text-anchor="middle" fill="#203936">F38</text>
<rect x="217.6523" y="80.7860" width="5.9454" height="3.6360" fill="#fff" stroke="none"/>
<text id="P82-A201-TXT-34" x="220.6250" y="83.5000" font-family="Arial" font-size="2.8" text-anchor="middle" fill="#203936">F39</text>
<rect x="106.7773" y="97.5360" width="5.9454" height="3.6360" fill="#fff" stroke="none"/>
<text id="P82-A201-TXT-35" x="109.7500" y="100.2500" font-family="Arial" font-size="2.8" text-anchor="middle" fill="#203936">F40</text>
<rect x="121.7773" y="97.5360" width="5.9454" height="3.6360" fill="#fff" stroke="none"/>
<text id="P82-A201-TXT-36" x="124.7500" y="100.2500" font-family="Arial" font-size="2.8" text-anchor="middle" fill="#203936">F41</text>
<rect x="136.7773" y="97.5360" width="5.9454" height="3.6360" fill="#fff" stroke="none"/>
<text id="P82-A201-TXT-37" x="139.7500" y="100.2500" font-family="Arial" font-size="2.8" text-anchor="middle" fill="#203936">F42</text>
<rect x="106.7773" y="132.5360" width="5.9454" height="3.6360" fill="#fff" stroke="none"/>
<text id="P82-A201-TXT-38" x="109.7500" y="135.2500" font-family="Arial" font-size="2.8" text-anchor="middle" fill="#203936">F43</text>
<rect x="121.7773" y="132.5360" width="5.9454" height="3.6360" fill="#fff" stroke="none"/>
<text id="P82-A201-TXT-39" x="124.7500" y="135.2500" font-family="Arial" font-size="2.8" text-anchor="middle" fill="#203936">F44</text>
<rect x="136.7773" y="132.5360" width="5.9454" height="3.6360" fill="#fff" stroke="none"/>
<text id="P82-A201-TXT-40" x="139.7500" y="135.2500" font-family="Arial" font-size="2.8" text-anchor="middle" fill="#203936">F45</text>
<rect x="215.7773" y="86.5360" width="5.9454" height="3.6360" fill="#fff" stroke="none"/>
<text id="P82-A201-TXT-41" x="218.7500" y="89.2500" font-family="Arial" font-size="2.8" text-anchor="middle" fill="#203936">F59</text>
<rect x="94.8077" y="43.6860" width="7.3846" height="3.6360" fill="#fff" stroke="none"/>
<text id="P82-A201-TXT-42" x="98.5000" y="46.4000" font-family="Arial" font-size="2.8" text-anchor="middle" fill="#203936">1100</text>
<rect x="123.5577" y="43.6860" width="7.3846" height="3.6360" fill="#fff" stroke="none"/>
<text id="P82-A201-TXT-43" x="127.2500" y="46.4000" font-family="Arial" font-size="2.8" text-anchor="middle" fill="#203936">1200</text>
<rect x="161.0577" y="43.6860" width="7.3846" height="3.6360" fill="#fff" stroke="none"/>
<text id="P82-A201-TXT-44" x="164.7500" y="46.4000" font-family="Arial" font-size="2.8" text-anchor="middle" fill="#203936">1800</text>
<rect x="198.5577" y="43.6860" width="7.3846" height="3.6360" fill="#fff" stroke="none"/>
<text id="P82-A201-TXT-45" x="202.2500" y="46.4000" font-family="Arial" font-size="2.8" text-anchor="middle" fill="#203936">1200</text>
<rect x="218.8558" y="43.6860" width="5.7885" height="3.6360" fill="#fff" stroke="none"/>
<text id="P82-A201-TXT-46" x="221.7500" y="46.4000" font-family="Arial" font-size="2.8" text-anchor="middle" fill="#203936">360</text>
<rect x="151.8077" y="40.1860" width="7.3846" height="3.6360" fill="#fff" stroke="none"/>
<text id="P82-A201-TXT-47" x="155.5000" y="42.9000" font-family="Arial" font-size="2.8" text-anchor="middle" fill="#203936">5660</text>
<rect x="235.9500" y="83.4360" width="7.3846" height="3.6360" fill="#fff" stroke="none"/>
<text id="P82-A201-TXT-48" x="236.4500" y="86.1500" font-family="Arial" font-size="2.8" text-anchor="start" fill="#203936">2380</text>
<rect x="235.9500" y="127.9360" width="7.3846" height="3.6360" fill="#fff" stroke="none"/>
<text id="P82-A201-TXT-49" x="236.4500" y="130.6500" font-family="Arial" font-size="2.8" text-anchor="start" fill="#203936">1180</text>
<rect x="243.9500" y="98.1860" width="7.3846" height="3.6360" fill="#fff" stroke="none"/>
<text id="P82-A201-TXT-50" x="244.4500" y="100.9000" font-family="Arial" font-size="2.8" text-anchor="start" fill="#203936">3560</text>
<rect x="187.8077" y="148.6860" width="7.3846" height="3.6360" fill="#fff" stroke="none"/>
<text id="P82-A201-TXT-51" x="191.5000" y="151.4000" font-family="Arial" font-size="2.8" text-anchor="middle" fill="#203936">2140</text>
<rect x="219.3558" y="153.1860" width="5.7885" height="3.6360" fill="#fff" stroke="none"/>
<text id="P82-A201-TXT-52" x="222.2500" y="155.9000" font-family="Arial" font-size="2.8" text-anchor="middle" fill="#203936">320</text>
<rect x="191.8077" y="156.6860" width="7.3846" height="3.6360" fill="#fff" stroke="none"/>
<text id="P82-A201-TXT-53" x="195.5000" y="159.4000" font-family="Arial" font-size="2.8" text-anchor="middle" fill="#203936">2460</text>
<rect x="174.4500" y="190.1860" width="7.3846" height="3.6360" fill="#fff" stroke="none"/>
<text id="P82-A201-TXT-54" x="174.9500" y="192.9000" font-family="Arial" font-size="2.8" text-anchor="start" fill="#203936">3800</text>
<rect x="121.0577" y="243.6860" width="7.3846" height="3.6360" fill="#fff" stroke="none"/>
<text id="P82-A201-TXT-55" x="124.7500" y="246.4000" font-family="Arial" font-size="2.8" text-anchor="middle" fill="#203936">3200</text>
<rect x="69.2615" y="56.8110" width="5.7885" height="3.6360" fill="#fff" stroke="none"/>
<text id="P82-A201-TXT-56" x="74.5500" y="59.5250" font-family="Arial" font-size="2.8" text-anchor="end" fill="#203936">250</text>
<rect x="67.6654" y="143.6860" width="7.3846" height="3.6360" fill="#fff" stroke="none"/>
<text id="P82-A201-TXT-57" x="74.5500" y="146.4000" font-family="Arial" font-size="2.8" text-anchor="end" fill="#203936">6700</text>
<rect x="69.2615" y="232.5610" width="5.7885" height="3.6360" fill="#fff" stroke="none"/>
<text id="P82-A201-TXT-58" x="74.5500" y="235.2750" font-family="Arial" font-size="2.8" text-anchor="end" fill="#203936">410</text>
<rect x="59.6654" y="145.6860" width="7.3846" height="3.6360" fill="#fff" stroke="none"/>
<text id="P82-A201-TXT-59" x="66.5500" y="148.4000" font-family="Arial" font-size="2.8" text-anchor="end" fill="#203936">7360</text>
<text id="P82-A201-TXT-60" x="302.0000" y="59.0000" font-family="Arial" font-size="3" text-anchor="start" fill="#203936" font-weight="bold">ID · габарит X × Y · ΔX / ΔY</text>
<text id="P82-A201-TXT-61" x="302.0000" y="67.0000" font-family="Arial" font-size="2.7" text-anchor="start" fill="#203936" font-weight="bold">F21 · 600 × 600 · 2400 / 0</text>
<text id="P82-A201-TXT-62" x="302.0000" y="71.3000" font-family="Arial" font-size="2.5" text-anchor="start" fill="#203936">ПОСУДОМОЙКА 600</text>
<text id="P82-A201-TXT-63" x="302.0000" y="77.5000" font-family="Arial" font-size="2.7" text-anchor="start" fill="#203936" font-weight="bold">F22 · 300 × 600 · 3000 / 0</text>
<text id="P82-A201-TXT-64" x="302.0000" y="81.8000" font-family="Arial" font-size="2.5" text-anchor="start" fill="#203936">СОРТИРОВКА 300</text>
<text id="P82-A201-TXT-65" x="302.0000" y="88.0000" font-family="Arial" font-size="2.7" text-anchor="start" fill="#203936" font-weight="bold">F23 · 700 × 600 · 3300 / 0</text>
<text id="P82-A201-TXT-66" x="302.0000" y="92.3000" font-family="Arial" font-size="2.5" text-anchor="start" fill="#203936">МОЙКА 700</text>
<text id="P82-A201-TXT-67" x="302.0000" y="98.5000" font-family="Arial" font-size="2.7" text-anchor="start" fill="#203936" font-weight="bold">F24 · 1060 × 600 · 4000 / 0</text>
<text id="P82-A201-TXT-68" x="302.0000" y="102.8000" font-family="Arial" font-size="2.5" text-anchor="start" fill="#203936">ПОДГОТОВКА 1060</text>
<text id="P82-A201-TXT-69" x="302.0000" y="109.0000" font-family="Arial" font-size="2.7" text-anchor="start" fill="#203936" font-weight="bold">F25 · 600 × 600 · 5060 / 0</text>
<text id="P82-A201-TXT-70" x="302.0000" y="113.3000" font-family="Arial" font-size="2.5" text-anchor="start" fill="#203936">УГОЛ 600</text>
<text id="P82-A201-TXT-71" x="302.0000" y="119.5000" font-family="Arial" font-size="2.7" text-anchor="start" fill="#203936" font-weight="bold">F26 · 600 × 600 · 5060 / 600</text>
<text id="P82-A201-TXT-72" x="302.0000" y="123.8000" font-family="Arial" font-size="2.5" text-anchor="start" fill="#203936">ВАРОЧНАЯ 600</text>
<text id="P82-A201-TXT-73" x="302.0000" y="130.0000" font-family="Arial" font-size="2.7" text-anchor="start" fill="#203936" font-weight="bold">F27 · 600 × 600 · 5060 / 600</text>
<text id="P82-A201-TXT-74" x="302.0000" y="134.3000" font-family="Arial" font-size="2.5" text-anchor="start" fill="#203936">ДУХОВКА ПОД ВАРОЧНОЙ</text>
<text id="P82-A201-TXT-75" x="302.0000" y="140.5000" font-family="Arial" font-size="2.7" text-anchor="start" fill="#203936" font-weight="bold">F28 · 600 × 580 · 5060 / 1800</text>
<text id="P82-A201-TXT-76" x="302.0000" y="144.8000" font-family="Arial" font-size="2.5" text-anchor="start" fill="#203936">ХОЛОДИЛЬНИК 600</text>
<text id="P82-A201-TXT-77" x="302.0000" y="151.0000" font-family="Arial" font-size="2.7" text-anchor="start" fill="#203936" font-weight="bold">F29 · 1700 × 900 · 750 / 4260</text>
<text id="P82-A201-TXT-78" x="302.0000" y="155.3000" font-family="Arial" font-size="2.5" text-anchor="start" fill="#203936">ДИВАН 1700</text>
<text id="P82-A201-TXT-79" x="302.0000" y="161.5000" font-family="Arial" font-size="2.7" text-anchor="start" fill="#203936" font-weight="bold">F30 · 300 × 2700 · 2900 / 4160</text>
<text id="P82-A201-TXT-80" x="302.0000" y="165.8000" font-family="Arial" font-size="2.5" text-anchor="start" fill="#203936">Шкаф 2700×300 · раздвижные фасады</text>
<text id="P82-A201-TXT-81" x="302.0000" y="172.0000" font-family="Arial" font-size="2.7" text-anchor="start" fill="#203936" font-weight="bold">F31 · 900 × 500 · 1150 / 5560</text>
<text id="P82-A201-TXT-82" x="302.0000" y="176.3000" font-family="Arial" font-size="2.5" text-anchor="start" fill="#203936">ЖУРН. СТОЛ</text>
<text id="P82-A201-TXT-83" x="302.0000" y="182.5000" font-family="Arial" font-size="2.7" text-anchor="start" fill="#203936" font-weight="bold">F33 · 660 × 1050 · 3500 / 1500</text>
<text id="P82-A201-TXT-84" x="302.0000" y="186.8000" font-family="Arial" font-size="2.5" text-anchor="start" fill="#203936">PREP-ОСТРОВ 660×1050</text>
<text id="P82-A201-TXT-85" x="302.0000" y="193.0000" font-family="Arial" font-size="2.7" text-anchor="start" fill="#203936" font-weight="bold">F34 · 400 × 400 · 3100 / 1550</text>
<text id="P82-A201-TXT-86" x="302.0000" y="197.3000" font-family="Arial" font-size="2.5" text-anchor="start" fill="#203936">БАРНЫЙ СТУЛ 1</text>
<text id="P82-A201-TXT-87" x="302.0000" y="203.5000" font-family="Arial" font-size="2.7" text-anchor="start" fill="#203936" font-weight="bold">F35 · 400 × 400 · 3100 / 2100</text>
<text id="P82-A201-TXT-88" x="302.0000" y="207.8000" font-family="Arial" font-size="2.5" text-anchor="start" fill="#203936">БАРНЫЙ СТУЛ 2</text>
<text id="P82-A201-TXT-89" x="302.0000" y="217.0000" font-family="Arial" font-size="2.7" text-anchor="start" fill="#203936">Полная ведомость всех предметов: А302–А304 и CSV. ΔX/ΔY — от</text>
<text id="P82-A201-TXT-90" x="302.0000" y="221.3000" font-family="Arial" font-size="2.7" text-anchor="start" fill="#203936">верхнего левого угла контура комнаты до верхнего левого угла предмета.</text>
<text id="P82-A201-TXT-91" x="302.0000" y="225.6000" font-family="Arial" font-size="2.7" text-anchor="start" fill="#203936">Это привязки, не нормативные проходы.</text>
<text id="P82-A201-TXT-92" x="302.0000" y="234.4000" font-family="Arial" font-size="2.7" text-anchor="start" fill="#203936">Расположение свободного дивана и стола сохранено; новые 300 мм</text>
<text id="P82-A201-TXT-93" x="302.0000" y="238.7000" font-family="Arial" font-size="2.7" text-anchor="start" fill="#203936">находятся у западного остекления.</text></svg>