<svg xmlns="http://www.w3.org/2000/svg" width="420mm" height="297mm" viewBox="0 0 420 297"><rect width="420" height="297" fill="white"/><g font-family="Arial,DejaVu Sans,sans-serif"><text x="12.000" y="9.000" font-size="3" font-weight="700" fill="#176c73" text-anchor="start">DBR-P11  /  ЭЛЕКТРИКА  /  P84</text><text x="408.000" y="9.000" font-size="2.8" font-weight="700" fill="#176c73" text-anchor="end">09.09.2026 · ДЛЯ СОГЛАСОВАНИЯ</text><text x="12.000" y="23.000" font-size="6" font-weight="700" fill="#17383c" text-anchor="start">Спальня 2: развёртки стен</text><text x="12.000" y="31.000" font-size="3" font-weight="400" fill="#697878" text-anchor="start">Физический взгляд из помещения. u отсчитывается слева на каждой развёртке; X/Y сохраняют общий ноль.</text><line x1="10.000" y1="36.000" x2="410.000" y2="36.000" stroke="#176c73" stroke-width="0.5"/><text x="12.000" y="285.000" font-size="2.7" font-weight="700" fill="#a45322" text-anchor="start">НЕ ДЛЯ МОНТАЖА  ·  h от локального чистого пола; числовые h — предложения, не нормы.</text><text x="12.000" y="291.000" font-size="2.5" font-weight="400" fill="#697878" text-anchor="start">Проходки, кабели, защита, влажные зоны, изделия и окончательные отметки требуют проектного решения.</text><text x="408.000" y="285.000" font-size="3.3" font-weight="700" fill="#176c73" text-anchor="end">P84-E306-1</text><text x="408.000" y="291.000" font-size="2.6" font-weight="400" fill="#697878" text-anchor="end">A3 · схемы NTS</text><text x="12.000" y="47.000" font-size="3.5" font-weight="700" fill="#176c73" text-anchor="start">Стена 1 · взгляд на север</text><text x="12.000" y="52.000" font-size="2.4" font-weight="400" fill="#697878" text-anchor="start">Слева (3500; 4160) → справа (6600; 4160)</text><polygon points="86.092,130.000 86.092,84.694 132.908,84.694 132.908,130.000" fill="#fbfcf9" stroke="#9daea6" stroke-width="0.25" stroke-dasharray="1.5,1"/><line x1="86.092" y1="130.000" x2="132.908" y2="130.000" stroke="#176c73" stroke-width="0.5"/><text x="84.092" y="131.000" font-size="2.2" font-weight="400" fill="#176c73" text-anchor="end">±0</text><line x1="86.092" y1="128.000" x2="115.390" y2="128.000" stroke="#719c76" stroke-width="1.1"/><text x="12.000" y="57.000" font-size="2.25" font-weight="400" fill="#668574" text-anchor="start">Полосы у пола: F04; высоты мебели TBC</text><polygon points="115.390,130.000 115.390,98.286 128.982,98.286 128.982,130.000" fill="#e7eff0" stroke="#8ba8ac" stroke-width="0.23" stroke-dasharray="1,1"/><text x="122.186" y="114.143" font-size="2.4" font-weight="400" fill="#176c73" text-anchor="middle">D06*</text><g data-point-id="P65-SW-11"><rect x="129.514" y="112.108" width="2.560" height="2.560" fill="white" stroke="#226ba0" stroke-width="0.4" /><line x1="130.234" y1="113.948" x2="131.354" y2="112.828" stroke="#226ba0" stroke-width="0.35"/></g><line x1="130.794" y1="130.000" x2="130.794" y2="113.388" stroke="#226ba0" stroke-width="0.18" stroke-dasharray="1,1"/><rect x="132.294" y="109.038" width="31.297" height="3.350" fill="#ffffff" stroke="none" stroke-width="0.3" /><text x="132.794" y="111.388" font-size="2.35" font-weight="700" fill="#226ba0" text-anchor="start">SW11  u=2960  h=1100*</text><line x1="86.092" y1="141.000" x2="132.908" y2="141.000" stroke="#697878" stroke-width="0.2"/><text x="109.500" y="140.000" font-size="2.4" font-weight="400" fill="#697878" text-anchor="middle">3100 мм</text><text x="213.000" y="47.000" font-size="3.5" font-weight="700" fill="#176c73" text-anchor="start">Стена 2 · взгляд на восток</text><text x="213.000" y="52.000" font-size="2.4" font-weight="400" fill="#697878" text-anchor="start">Слева (6600; 4160) → справа (6600; 7760)</text><polygon points="283.316,130.000 283.316,84.694 337.684,84.694 337.684,130.000" fill="#fbfcf9" stroke="#9daea6" stroke-width="0.25" stroke-dasharray="1.5,1"/><line x1="283.316" y1="130.000" x2="337.684" y2="130.000" stroke="#176c73" stroke-width="0.5"/><text x="281.316" y="131.000" font-size="2.2" font-weight="400" fill="#176c73" text-anchor="end">±0</text><g data-point-id="P65-P-18"><circle cx="290.112" cy="125.469" r="1.32" fill="white" stroke="#b24630" stroke-width="0.45"/><line x1="289.632" y1="124.949" x2="289.632" y2="125.989" stroke="#b24630" stroke-width="0.3"/><line x1="290.592" y1="124.949" x2="290.592" y2="125.989" stroke="#b24630" stroke-width="0.3"/></g><line x1="290.112" y1="130.000" x2="290.112" y2="125.469" stroke="#b24630" stroke-width="0.18" stroke-dasharray="1,1"/><rect x="291.612" y="121.119" width="26.926" height="3.350" fill="#ffffff" stroke="none" stroke-width="0.3" /><text x="292.112" y="123.469" font-size="2.35" font-weight="700" fill="#b24630" text-anchor="start">P18  u=450  h=300*</text><line x1="283.316" y1="141.000" x2="337.684" y2="141.000" stroke="#697878" stroke-width="0.2"/><text x="310.500" y="140.000" font-size="2.4" font-weight="400" fill="#697878" text-anchor="middle">3600 мм</text><text x="12.000" y="156.000" font-size="3.5" font-weight="700" fill="#176c73" text-anchor="start">Стена 3 · взгляд на юг</text><text x="12.000" y="161.000" font-size="2.4" font-weight="400" fill="#697878" text-anchor="start">Слева (6600; 7760) → справа (3500; 7760)</text><polygon points="86.092,239.000 86.092,193.694 132.908,193.694 132.908,239.000" fill="#fbfcf9" stroke="#9daea6" stroke-width="0.25" stroke-dasharray="1.5,1"/><line x1="86.092" y1="239.000" x2="132.908" y2="239.000" stroke="#176c73" stroke-width="0.5"/><text x="84.092" y="240.000" font-size="2.2" font-weight="400" fill="#176c73" text-anchor="end">±0</text><line x1="127.622" y1="237.000" x2="132.908" y2="237.000" stroke="#719c76" stroke-width="1.1"/><text x="12.000" y="166.000" font-size="2.25" font-weight="400" fill="#668574" text-anchor="start">Полосы у пола: F07; высоты мебели TBC</text><polygon points="101.194,239.000 101.194,202.755 125.357,202.755 125.357,239.000" fill="#e7eff0" stroke="#8ba8ac" stroke-width="0.23" stroke-dasharray="1,1"/><text x="113.276" y="220.878" font-size="2.4" font-weight="400" fill="#176c73" text-anchor="middle">W05*</text><line x1="86.092" y1="250.000" x2="132.908" y2="250.000" stroke="#697878" stroke-width="0.2"/><text x="109.500" y="249.000" font-size="2.4" font-weight="400" fill="#697878" text-anchor="middle">3100 мм</text><text x="213.000" y="156.000" font-size="3.5" font-weight="700" fill="#176c73" text-anchor="start">Стена 4 · взгляд на запад</text><text x="213.000" y="161.000" font-size="2.4" font-weight="400" fill="#697878" text-anchor="start">Слева (3500; 7760) → справа (3500; 4160)</text><polygon points="283.316,239.000 283.316,193.694 337.684,193.694 337.684,239.000" fill="#fbfcf9" stroke="#9daea6" stroke-width="0.25" stroke-dasharray="1.5,1"/><line x1="283.316" y1="239.000" x2="337.684" y2="239.000" stroke="#176c73" stroke-width="0.5"/><text x="281.316" y="240.000" font-size="2.2" font-weight="400" fill="#176c73" text-anchor="end">±0</text><line x1="328.924" y1="237.000" x2="337.684" y2="237.000" stroke="#719c76" stroke-width="1.1"/><line x1="292.378" y1="237.000" x2="322.582" y2="237.000" stroke="#719c76" stroke-width="1.1"/><line x1="322.582" y1="237.000" x2="327.867" y2="237.000" stroke="#719c76" stroke-width="1.1"/><line x1="287.092" y1="237.000" x2="292.378" y2="237.000" stroke="#719c76" stroke-width="1.1"/><text x="213.000" y="166.000" font-size="2.25" font-weight="400" fill="#668574" text-anchor="start">Полосы у пола: F04, F05, F06, F07; высоты мебели TBC</text><g data-point-id="P65-P-16"><circle cx="327.112" cy="229.184" r="1.32" fill="white" stroke="#b24630" stroke-width="0.45"/><line x1="326.632" y1="228.664" x2="326.632" y2="229.704" stroke="#b24630" stroke-width="0.3"/><line x1="327.592" y1="228.664" x2="327.592" y2="229.704" stroke="#b24630" stroke-width="0.3"/></g><line x1="327.112" y1="239.000" x2="327.112" y2="229.184" stroke="#b24630" stroke-width="0.18" stroke-dasharray="1,1"/><rect x="328.612" y="224.834" width="28.383" height="3.350" fill="#ffffff" stroke="none" stroke-width="0.3" /><text x="329.112" y="227.184" font-size="2.35" font-weight="700" fill="#b24630" text-anchor="start">P16  u=2900  h=650*</text><g data-point-id="P65-P-17"><circle cx="288.602" cy="229.184" r="1.32" fill="white" stroke="#b24630" stroke-width="0.45"/><line x1="288.122" y1="228.664" x2="288.122" y2="229.704" stroke="#b24630" stroke-width="0.3"/><line x1="289.082" y1="228.664" x2="289.082" y2="229.704" stroke="#b24630" stroke-width="0.3"/></g><line x1="288.602" y1="239.000" x2="288.602" y2="229.184" stroke="#b24630" stroke-width="0.18" stroke-dasharray="1,1"/><rect x="290.102" y="224.834" width="26.926" height="3.350" fill="#ffffff" stroke="none" stroke-width="0.3" /><text x="290.602" y="227.184" font-size="2.35" font-weight="700" fill="#b24630" text-anchor="start">P17  u=350  h=650*</text><g data-point-id="P65-SW-12"><rect x="323.944" y="223.373" width="2.560" height="2.560" fill="white" stroke="#226ba0" stroke-width="0.4" /><line x1="324.664" y1="225.213" x2="325.784" y2="224.093" stroke="#226ba0" stroke-width="0.35"/></g><line x1="325.224" y1="239.000" x2="325.224" y2="224.653" stroke="#226ba0" stroke-width="0.18" stroke-dasharray="1,1"/><line x1="325.224" y1="223.653" x2="327.224" y2="216.853" stroke="#226ba0" stroke-width="0.16"/><rect x="326.724" y="215.303" width="29.840" height="3.350" fill="#ffffff" stroke="none" stroke-width="0.3" /><text x="327.224" y="217.653" font-size="2.35" font-weight="700" fill="#226ba0" text-anchor="start">SW12  u=2775  h=950*</text><g data-point-id="P65-SW-13"><rect x="288.455" y="223.373" width="2.560" height="2.560" fill="white" stroke="#226ba0" stroke-width="0.4" /><line x1="289.175" y1="225.213" x2="290.295" y2="224.093" stroke="#226ba0" stroke-width="0.35"/></g><line x1="289.735" y1="239.000" x2="289.735" y2="224.653" stroke="#226ba0" stroke-width="0.18" stroke-dasharray="1,1"/><line x1="289.735" y1="223.653" x2="291.735" y2="216.853" stroke="#226ba0" stroke-width="0.16"/><rect x="291.235" y="215.303" width="28.383" height="3.350" fill="#ffffff" stroke="none" stroke-width="0.3" /><text x="291.735" y="217.653" font-size="2.35" font-weight="700" fill="#226ba0" text-anchor="start">SW13  u=425  h=950*</text><text x="216.000" y="244.500" font-size="2.35" font-weight="400" fill="#a45322" text-anchor="start">Высота TBC: C2-01, C3-01; X/Y см. ведомость</text><line x1="283.316" y1="250.000" x2="337.684" y2="250.000" stroke="#697878" stroke-width="0.2"/><text x="310.500" y="249.000" font-size="2.4" font-weight="400" fill="#697878" text-anchor="middle">3600 мм</text><text x="12.000" y="267.000" font-size="2.6" font-weight="400" fill="#17383c" text-anchor="start">* Контуры проёмов/потолка и числовые h показаны как предложения. TBC не изображается высотой 0. Мебельные/потолочные точки вне плоскости стены — в плане и полной ведомости.</text></g></svg>