<svg xmlns="http://www.w3.org/2000/svg" width="420mm" height="297mm" viewBox="0 0 420 297"><rect width="420" height="297" fill="white"/><g font-family="Arial,DejaVu Sans,sans-serif"><text x="12.000" y="9.000" font-size="3" font-weight="700" fill="#176c73" text-anchor="start">DBR-P11  /  ЭЛЕКТРИКА  /  P84</text><text x="408.000" y="9.000" font-size="2.8" font-weight="700" fill="#176c73" text-anchor="end">09.09.2026 · ДЛЯ СОГЛАСОВАНИЯ</text><text x="12.000" y="23.000" font-size="6" font-weight="700" fill="#17383c" text-anchor="start">Кухня / столовая / гостиная: развёртки стен</text><text x="12.000" y="31.000" font-size="3" font-weight="400" fill="#697878" text-anchor="start">Физический взгляд из помещения. u отсчитывается слева на каждой развёртке; X/Y сохраняют общий ноль.</text><line x1="10.000" y1="36.000" x2="410.000" y2="36.000" stroke="#176c73" stroke-width="0.5"/><text x="12.000" y="285.000" font-size="2.7" font-weight="700" fill="#a45322" text-anchor="start">НЕ ДЛЯ МОНТАЖА  ·  h от локального чистого пола; числовые h — предложения, не нормы.</text><text x="12.000" y="291.000" font-size="2.5" font-weight="400" fill="#697878" text-anchor="start">Проходки, кабели, защита, влажные зоны, изделия и окончательные отметки требуют проектного решения.</text><text x="408.000" y="285.000" font-size="3.3" font-weight="700" fill="#176c73" text-anchor="end">P84-E301-1</text><text x="408.000" y="291.000" font-size="2.6" font-weight="400" fill="#697878" text-anchor="end">A3 · схемы NTS</text><text x="12.000" y="47.000" font-size="3.5" font-weight="700" fill="#176c73" text-anchor="start">Стена 1 · взгляд на север</text><text x="12.000" y="52.000" font-size="2.4" font-weight="400" fill="#697878" text-anchor="start">Слева (100; 400) → справа (5760; 400)</text><polygon points="66.761,130.000 66.761,82.932 115.088,82.932 115.088,84.694 152.239,84.694 152.239,130.000" fill="#fbfcf9" stroke="#9daea6" stroke-width="0.25" stroke-dasharray="1.5,1"/><line x1="66.761" y1="130.000" x2="152.239" y2="130.000" stroke="#176c73" stroke-width="0.5"/><text x="64.761" y="131.000" font-size="2.2" font-weight="400" fill="#176c73" text-anchor="end">±0</text><line x1="103.006" y1="128.000" x2="112.067" y2="128.000" stroke="#719c76" stroke-width="1.1"/><line x1="112.067" y1="128.000" x2="116.598" y2="128.000" stroke="#719c76" stroke-width="1.1"/><line x1="116.598" y1="128.000" x2="127.169" y2="128.000" stroke="#719c76" stroke-width="1.1"/><line x1="127.169" y1="128.000" x2="143.178" y2="128.000" stroke="#719c76" stroke-width="1.1"/><line x1="143.178" y1="128.000" x2="152.239" y2="128.000" stroke="#719c76" stroke-width="1.1"/><text x="12.000" y="57.000" font-size="2.25" font-weight="400" fill="#668574" text-anchor="start">Полосы у пола: F21, F22, F23, F24, F25; высоты мебели TBC</text><polygon points="83.373,130.000 83.373,93.755 101.496,93.755 101.496,130.000" fill="#e7eff0" stroke="#8ba8ac" stroke-width="0.23" stroke-dasharray="1,1"/><text x="92.435" y="111.878" font-size="2.4" font-weight="400" fill="#176c73" text-anchor="middle">D02*</text><polygon points="128.680,114.898 128.680,96.776 146.802,96.776 146.802,114.898" fill="#e7eff0" stroke="#8ba8ac" stroke-width="0.23" stroke-dasharray="1,1"/><text x="137.741" y="105.837" font-size="2.4" font-weight="400" fill="#176c73" text-anchor="middle">W06*</text><g data-point-id="P65-P-01"><circle cx="114.333" cy="111.878" r="1.32" fill="white" stroke="#b24630" stroke-width="0.45"/><line x1="113.853" y1="111.358" x2="113.853" y2="112.398" stroke="#b24630" stroke-width="0.3"/><line x1="114.813" y1="111.358" x2="114.813" y2="112.398" stroke="#b24630" stroke-width="0.3"/></g><line x1="114.333" y1="130.000" x2="114.333" y2="111.878" stroke="#b24630" stroke-width="0.18" stroke-dasharray="1,1"/><rect x="115.833" y="107.528" width="29.840" height="3.350" fill="#ffffff" stroke="none" stroke-width="0.3" /><text x="116.333" y="109.878" font-size="2.35" font-weight="700" fill="#b24630" text-anchor="start">P01  u=3150  h=1200*</text><g data-point-id="P65-P-02"><circle cx="149.520" cy="111.122" r="1.32" fill="white" stroke="#b24630" stroke-width="0.45"/><line x1="149.040" y1="110.602" x2="149.040" y2="111.642" stroke="#b24630" stroke-width="0.3"/><line x1="150.000" y1="110.602" x2="150.000" y2="111.642" stroke="#b24630" stroke-width="0.3"/></g><line x1="149.520" y1="130.000" x2="149.520" y2="111.122" stroke="#b24630" stroke-width="0.18" stroke-dasharray="1,1"/><rect x="151.020" y="106.772" width="29.840" height="3.350" fill="#ffffff" stroke="none" stroke-width="0.3" /><text x="151.520" y="109.122" font-size="2.35" font-weight="700" fill="#b24630" text-anchor="start">P02  u=5480  h=1250*</text><g data-point-id="P68-P-33"><circle cx="114.333" cy="108.102" r="1.32" fill="white" stroke="#b24630" stroke-width="0.45"/><line x1="113.853" y1="107.582" x2="113.853" y2="108.622" stroke="#b24630" stroke-width="0.3"/><line x1="114.813" y1="107.582" x2="114.813" y2="108.622" stroke="#b24630" stroke-width="0.3"/></g><line x1="114.333" y1="130.000" x2="114.333" y2="108.102" stroke="#b24630" stroke-width="0.18" stroke-dasharray="1,1"/><line x1="114.333" y1="107.102" x2="116.333" y2="100.302" stroke="#b24630" stroke-width="0.16"/><rect x="115.833" y="98.752" width="29.840" height="3.350" fill="#ffffff" stroke="none" stroke-width="0.3" /><text x="116.333" y="101.102" font-size="2.35" font-weight="700" fill="#b24630" text-anchor="start">P33  u=3150  h=1450*</text><g data-point-id="P65-SW-04"><rect x="76.053" y="112.108" width="2.560" height="2.560" fill="white" stroke="#226ba0" stroke-width="0.4" /><line x1="76.773" y1="113.948" x2="77.893" y2="112.828" stroke="#226ba0" stroke-width="0.35"/></g><line x1="77.333" y1="130.000" x2="77.333" y2="113.388" stroke="#226ba0" stroke-width="0.18" stroke-dasharray="1,1"/><rect x="78.833" y="109.038" width="29.840" height="3.350" fill="#ffffff" stroke="none" stroke-width="0.3" /><text x="79.333" y="111.388" font-size="2.35" font-weight="700" fill="#226ba0" text-anchor="start">SW04  u=700  h=1100*</text><text x="15.000" y="135.500" font-size="2.35" font-weight="400" fill="#a45322" text-anchor="start">Высота TBC: P04; X/Y см. ведомость</text><line x1="66.761" y1="141.000" x2="152.239" y2="141.000" stroke="#697878" stroke-width="0.2"/><text x="109.500" y="140.000" font-size="2.4" font-weight="400" fill="#697878" text-anchor="middle">5660 мм</text><text x="213.000" y="47.000" font-size="3.5" font-weight="700" fill="#176c73" text-anchor="start">Стена 2 · взгляд на восток</text><text x="213.000" y="52.000" font-size="2.4" font-weight="400" fill="#697878" text-anchor="start">Слева (5760; 400) → справа (5760; 3960)</text><polygon points="283.618,130.000 283.618,84.694 337.382,84.694 337.382,130.000" fill="#fbfcf9" stroke="#9daea6" stroke-width="0.25" stroke-dasharray="1.5,1"/><line x1="283.618" y1="130.000" x2="337.382" y2="130.000" stroke="#176c73" stroke-width="0.5"/><text x="281.618" y="131.000" font-size="2.2" font-weight="400" fill="#176c73" text-anchor="end">±0</text><line x1="283.618" y1="128.000" x2="292.680" y2="128.000" stroke="#719c76" stroke-width="1.1"/><line x1="292.680" y1="128.000" x2="301.741" y2="128.000" stroke="#719c76" stroke-width="1.1"/><polygon points="292.680,128.490 292.680,119.429 301.741,119.429 301.741,128.490" fill="#e8ece4" stroke="#9aaa98" stroke-width="0.2" stroke-dasharray="1,1"/><text x="297.210" y="118.429" font-size="2.1" font-weight="400" fill="#668574" text-anchor="middle">F27*</text><line x1="310.802" y1="128.000" x2="319.561" y2="128.000" stroke="#719c76" stroke-width="1.1"/><polygon points="292.680,105.837 292.680,104.629 301.741,104.629 301.741,105.837" fill="#e8ece4" stroke="#9aaa98" stroke-width="0.2" stroke-dasharray="1,1"/><text x="297.210" y="103.629" font-size="2.1" font-weight="400" fill="#668574" text-anchor="middle">F39*</text><polygon points="301.741,130.000 301.741,117.163 310.500,117.163 310.500,130.000" fill="#e8ece4" stroke="#9aaa98" stroke-width="0.2" stroke-dasharray="1,1"/><text x="306.120" y="116.163" font-size="2.1" font-weight="400" fill="#668574" text-anchor="middle">F59*</text><polygon points="301.741,116.861 301.741,116.408 310.802,116.408 310.802,116.861" fill="#e8ece4" stroke="#9aaa98" stroke-width="0.2" stroke-dasharray="1,1"/><text x="306.271" y="115.408" font-size="2.1" font-weight="400" fill="#668574" text-anchor="middle">F60*</text><text x="213.000" y="57.000" font-size="2.25" font-weight="400" fill="#668574" text-anchor="start">Полосы у пола: F25, F26, F28; высоты мебели TBC</text><polygon points="319.561,130.000 319.561,84.694 337.382,84.694 337.382,130.000" fill="#e7eff0" stroke="#8ba8ac" stroke-width="0.23" stroke-dasharray="1,1"/><text x="328.471" y="107.347" font-size="2.4" font-weight="400" fill="#176c73" text-anchor="middle">OC01*</text><text x="216.000" y="135.500" font-size="2.35" font-weight="400" fill="#a45322" text-anchor="start">Высота TBC: P05, P06, P07, P-FRZ; X/Y см. ведомость</text><line x1="283.618" y1="141.000" x2="337.382" y2="141.000" stroke="#697878" stroke-width="0.2"/><text x="310.500" y="140.000" font-size="2.4" font-weight="400" fill="#697878" text-anchor="middle">3560 мм</text><text x="12.000" y="156.000" font-size="3.5" font-weight="700" fill="#176c73" text-anchor="start">Стена 3 · взгляд на юг</text><text x="12.000" y="161.000" font-size="2.4" font-weight="400" fill="#697878" text-anchor="start">Слева (5760; 3960) → справа (3300; 3960)</text><polygon points="90.924,239.000 90.924,193.694 128.075,193.694 128.076,169.531 128.076,239.000" fill="#fbfcf9" stroke="#9daea6" stroke-width="0.25" stroke-dasharray="1.5,1"/><line x1="90.924" y1="239.000" x2="128.076" y2="239.000" stroke="#176c73" stroke-width="0.5"/><text x="88.924" y="240.000" font-size="2.2" font-weight="400" fill="#176c73" text-anchor="end">±0</text><polygon points="90.924,239.000 90.924,207.286 95.757,207.286 95.757,239.000" fill="#e7eff0" stroke="#8ba8ac" stroke-width="0.23" stroke-dasharray="1,1"/><text x="93.341" y="223.143" font-size="2.4" font-weight="400" fill="#176c73" text-anchor="middle">D06*</text><g data-point-id="P68-P-34"><circle cx="101.647" cy="234.469" r="1.32" fill="white" stroke="#b24630" stroke-width="0.45"/><line x1="101.167" y1="233.949" x2="101.167" y2="234.989" stroke="#b24630" stroke-width="0.3"/><line x1="102.127" y1="233.949" x2="102.127" y2="234.989" stroke="#b24630" stroke-width="0.3"/></g><line x1="101.647" y1="239.000" x2="101.647" y2="234.469" stroke="#b24630" stroke-width="0.18" stroke-dasharray="1,1"/><rect x="103.147" y="230.119" width="26.926" height="3.350" fill="#ffffff" stroke="none" stroke-width="0.3" /><text x="103.647" y="232.469" font-size="2.35" font-weight="700" fill="#b24630" text-anchor="start">P34  u=710  h=300*</text><g data-point-id="P65-SW-03"><rect x="100.367" y="221.108" width="2.560" height="2.560" fill="white" stroke="#226ba0" stroke-width="0.4" /><line x1="101.087" y1="222.948" x2="102.207" y2="221.828" stroke="#226ba0" stroke-width="0.35"/></g><line x1="101.647" y1="239.000" x2="101.647" y2="222.388" stroke="#226ba0" stroke-width="0.18" stroke-dasharray="1,1"/><rect x="103.147" y="218.038" width="29.840" height="3.350" fill="#ffffff" stroke="none" stroke-width="0.3" /><text x="103.647" y="220.388" font-size="2.35" font-weight="700" fill="#226ba0" text-anchor="start">SW03  u=710  h=1100*</text><line x1="90.924" y1="250.000" x2="128.076" y2="250.000" stroke="#697878" stroke-width="0.2"/><text x="109.500" y="249.000" font-size="2.4" font-weight="400" fill="#697878" text-anchor="middle">2460 мм</text><text x="213.000" y="156.000" font-size="3.5" font-weight="700" fill="#176c73" text-anchor="start">Стена 4 · взгляд на восток</text><text x="213.000" y="161.000" font-size="2.4" font-weight="400" fill="#697878" text-anchor="start">Слева (3300; 3960) → справа (3300; 7760)</text><polygon points="281.806,239.000 281.806,169.531 283.618,168.776 339.194,191.932 339.194,239.000" fill="#fbfcf9" stroke="#9daea6" stroke-width="0.25" stroke-dasharray="1.5,1"/><line x1="281.806" y1="239.000" x2="339.194" y2="239.000" stroke="#176c73" stroke-width="0.5"/><text x="279.806" y="240.000" font-size="2.2" font-weight="400" fill="#176c73" text-anchor="end">±0</text><line x1="290.867" y1="237.000" x2="331.643" y2="237.000" stroke="#719c76" stroke-width="1.1"/><line x1="333.153" y1="237.000" x2="339.194" y2="237.000" stroke="#719c76" stroke-width="1.1"/><line x1="331.643" y1="237.000" x2="339.194" y2="237.000" stroke="#719c76" stroke-width="1.1"/><text x="213.000" y="166.000" font-size="2.25" font-weight="400" fill="#668574" text-anchor="start">Полосы у пола: F30, F37, F38; высоты мебели TBC</text><g data-point-id="P65-P-11"><circle cx="286.186" cy="234.469" r="1.32" fill="white" stroke="#b24630" stroke-width="0.45"/><line x1="285.706" y1="233.949" x2="285.706" y2="234.989" stroke="#b24630" stroke-width="0.3"/><line x1="286.666" y1="233.949" x2="286.666" y2="234.989" stroke="#b24630" stroke-width="0.3"/></g><line x1="286.186" y1="239.000" x2="286.186" y2="234.469" stroke="#b24630" stroke-width="0.18" stroke-dasharray="1,1"/><rect x="287.686" y="230.119" width="26.926" height="3.350" fill="#ffffff" stroke="none" stroke-width="0.3" /><text x="288.186" y="232.469" font-size="2.35" font-weight="700" fill="#b24630" text-anchor="start">P11  u=290  h=300*</text><g data-point-id="P65-SW-05"><rect x="285.812" y="221.108" width="2.560" height="2.560" fill="white" stroke="#226ba0" stroke-width="0.4" /><line x1="286.532" y1="222.948" x2="287.652" y2="221.828" stroke="#226ba0" stroke-width="0.35"/></g><line x1="287.092" y1="239.000" x2="287.092" y2="222.388" stroke="#226ba0" stroke-width="0.18" stroke-dasharray="1,1"/><rect x="288.592" y="218.038" width="29.840" height="3.350" fill="#ffffff" stroke="none" stroke-width="0.3" /><text x="289.092" y="220.388" font-size="2.35" font-weight="700" fill="#226ba0" text-anchor="start">SW05  u=350  h=1100*</text><text x="216.000" y="244.500" font-size="2.35" font-weight="400" fill="#a45322" text-anchor="start">Высота TBC: L04; X/Y см. ведомость</text><line x1="281.806" y1="250.000" x2="339.194" y2="250.000" stroke="#697878" stroke-width="0.2"/><text x="310.500" y="249.000" font-size="2.4" font-weight="400" fill="#697878" text-anchor="middle">3800 мм</text><text x="12.000" y="267.000" font-size="2.6" font-weight="400" fill="#17383c" text-anchor="start">* Контуры проёмов/потолка и числовые h показаны как предложения. TBC не изображается высотой 0. Мебельные/потолочные точки вне плоскости стены — в плане и полной ведомости.</text></g></svg>