<svg xmlns="http://www.w3.org/2000/svg" width="420mm" height="297mm" viewBox="0 0 1680 1188" role="img">
<title>Весь дом · мебель и проходы</title>
<desc>DBR-P11. Размеры в миллиметрах. Площади по геометрии P81, согласованной с P89. Для согласования.</desc>
<rect width="1680" height="1188" fill="#fffdf8"/>
<text x="64.00" y="57.00" font-family="Arial, sans-serif" font-size="17" fill="#697066" text-anchor="start" font-weight="600">ДОМ У ВОДЫ / DBR—P11</text>
<text x="64.00" y="104.00" font-family="Arial, sans-serif" font-size="34" fill="#303832" text-anchor="start" font-weight="600">Весь дом · мебель и проходы</text>
<text x="64.00" y="137.00" font-family="Arial, sans-serif" font-size="17" fill="#697066" text-anchor="start" font-weight="400">Душ, D05 и кровать F05 обновлены; лаундж и кладовая в линии фасадов. Размеры в мм.</text>
<line x1="64.00" y1="160.00" x2="1616.00" y2="160.00" stroke="#d6d7cd" stroke-width="1"/>
<rect x="152.90" y="199.70" width="495.90" height="279.30" fill="#d8ebe8" stroke="#267460" stroke-width="2"/>
<rect x="648.80" y="199.70" width="163.02" height="279.30" fill="#ece2d2" stroke="#267460" stroke-width="2"/>
<text x="403.70" y="347.90" font-family="Arial, sans-serif" font-size="18" fill="#303832" text-anchor="middle" font-weight="600">ТЁПЛЫЙ ЛАУНДЖ · 8700 × 4900</text>
<text x="730.31" y="342.20" font-family="Arial, sans-serif" font-size="14" fill="#303832" text-anchor="middle" font-weight="600">КЛАДОВАЯ</text>
<text x="730.31" y="362.15" font-family="Arial, sans-serif" font-size="12" fill="#303832" text-anchor="middle" font-weight="400">2860 × 4900</text>
<polygon id="P26-A-R01" data-room-id="P26-A-R01" points="175.70,501.80 498.32,501.80 498.32,704.72 358.10,704.72 358.10,921.32 175.70,921.32" fill="#e9e1d2" stroke="none" stroke-width="1"/>
<polygon id="P26-A-HALL" data-room-id="P26-A-HALL" points="509.72,501.80 595.22,501.80 595.22,618.08 623.72,618.08 623.72,704.72 509.72,704.72" fill="#e8e9e2" stroke="none" stroke-width="1"/>
<polygon id="P26-A-R02" data-room-id="P26-A-R02" points="606.62,501.80 789.02,501.80 789.02,606.68 606.62,606.68" fill="#e0e7e4" stroke="none" stroke-width="1"/>
<polygon id="P26-A-R03" data-room-id="P26-A-R03" points="635.12,618.08 789.02,618.08 789.02,704.72 635.12,704.72" fill="#e0e7e4" stroke="none" stroke-width="1"/>
<polygon id="P26-A-R04" data-room-id="P26-A-R04" points="557.60,716.12 789.02,716.12 789.02,921.32 557.60,921.32" fill="#dfdccf" stroke="none" stroke-width="1"/>
<polygon id="P26-A-R05" data-room-id="P26-A-R05" points="369.50,716.12 546.20,716.12 546.20,921.32 369.50,921.32" fill="#e8e0d4" stroke="none" stroke-width="1"/>
<rect x="152.90" y="479.00" width="658.92" height="22.80" fill="#303832" stroke="none" stroke-width="1"/>
<rect x="789.02" y="501.80" width="22.80" height="419.52" fill="#303832" stroke="none" stroke-width="1"/>
<rect x="152.90" y="921.32" width="658.92" height="22.80" fill="#303832" stroke="none" stroke-width="1"/>
<rect x="152.90" y="501.80" width="22.80" height="419.52" fill="#303832" stroke="none" stroke-width="1"/>
<rect x="498.32" y="501.80" width="11.40" height="135.66" fill="#303832" stroke="none" stroke-width="1"/>
<rect x="358.10" y="704.72" width="430.92" height="11.40" fill="#303832" stroke="none" stroke-width="1"/>
<rect x="358.10" y="704.72" width="11.40" height="216.60" fill="#303832" stroke="none" stroke-width="1"/>
<rect x="546.20" y="716.12" width="11.40" height="205.20" fill="#303832" stroke="none" stroke-width="1"/>
<rect x="635.12" y="606.68" width="153.90" height="11.40" fill="#303832" stroke="none" stroke-width="1"/>
<rect x="595.22" y="501.80" width="11.40" height="104.88" fill="#303832" stroke="none" stroke-width="1"/>
<rect x="595.22" y="606.68" width="39.90" height="11.40" fill="#303832" stroke="none" stroke-width="1"/>
<rect x="623.72" y="618.08" width="11.40" height="86.64" fill="#303832" stroke="none" stroke-width="1"/>
<rect x="238.40" y="479.00" width="68.40" height="22.80" fill="#fffdf8" stroke="none" stroke-width="1"/>
<line x1="238.40" y1="490.40" x2="306.80" y2="490.40" stroke="#9a9e94" stroke-width="1" stroke-dasharray="4 4"/>
<rect x="409.40" y="479.00" width="68.40" height="22.80" fill="#fffdf8" stroke="none" stroke-width="1"/>
<line x1="409.40" y1="490.40" x2="477.80" y2="490.40" stroke="#637b78" stroke-width="2"/>
<rect x="543.92" y="479.00" width="51.30" height="22.80" fill="#fffdf8" stroke="none" stroke-width="1"/>
<line x1="543.92" y1="490.40" x2="595.22" y2="490.40" stroke="#9a9e94" stroke-width="1" stroke-dasharray="4 4"/>
<rect x="789.02" y="502.94" width="22.80" height="45.60" fill="#fffdf8" stroke="none" stroke-width="1"/>
<line x1="800.42" y1="502.94" x2="800.42" y2="548.54" stroke="#637b78" stroke-width="2"/>
<rect x="789.02" y="654.56" width="22.80" height="45.60" fill="#fffdf8" stroke="none" stroke-width="1"/>
<line x1="800.42" y1="654.56" x2="800.42" y2="700.16" stroke="#637b78" stroke-width="2"/>
<rect x="398.00" y="921.32" width="91.20" height="22.80" fill="#fffdf8" stroke="none" stroke-width="1"/>
<line x1="398.00" y1="932.72" x2="489.20" y2="932.72" stroke="#637b78" stroke-width="2"/>
<rect x="589.52" y="921.32" width="91.20" height="22.80" fill="#fffdf8" stroke="none" stroke-width="1"/>
<line x1="589.52" y1="932.72" x2="680.72" y2="932.72" stroke="#637b78" stroke-width="2"/>
<rect x="152.90" y="516.05" width="22.80" height="381.90" fill="#fffdf8" stroke="none" stroke-width="1"/>
<line x1="164.30" y1="516.05" x2="164.30" y2="897.95" stroke="#637b78" stroke-width="2"/>
<rect x="498.32" y="637.46" width="11.40" height="67.26" fill="#fffdf8" stroke="none" stroke-width="1"/>
<rect x="595.22" y="510.35" width="11.40" height="51.30" fill="#fffdf8" stroke="none" stroke-width="1"/>
<line x1="600.92" y1="510.35" x2="600.92" y2="561.65" stroke="#9a9e94" stroke-width="1" stroke-dasharray="4 4"/>
<rect x="568.43" y="704.72" width="51.30" height="11.40" fill="#fffdf8" stroke="none" stroke-width="1"/>
<line x1="568.43" y1="710.42" x2="619.73" y2="710.42" stroke="#9a9e94" stroke-width="1" stroke-dasharray="4 4"/>
<rect x="696.39" y="704.72" width="51.30" height="11.40" fill="#fffdf8" stroke="none" stroke-width="1"/>
<line x1="696.39" y1="710.42" x2="747.70" y2="710.42" stroke="#9a9e94" stroke-width="1" stroke-dasharray="4 4"/>
<rect x="480.08" y="704.72" width="51.30" height="11.40" fill="#fffdf8" stroke="none" stroke-width="1"/>
<line x1="480.08" y1="710.42" x2="531.38" y2="710.42" stroke="#9a9e94" stroke-width="1" stroke-dasharray="4 4"/>
<rect x="509.72" y="501.80" width="34.20" height="135.66" fill="#d9ccba" stroke="#908a7e" stroke-width="1"/>
<text x="526.82" y="569.84" font-family="Arial, sans-serif" font-size="11" fill="#303832" text-anchor="middle" font-weight="600">F01</text>
<rect x="755.96" y="716.12" width="33.06" height="205.20" fill="#d9ccba" stroke="#908a7e" stroke-width="1"/>
<text x="772.49" y="818.93" font-family="Arial, sans-serif" font-size="11" fill="#303832" text-anchor="middle" font-weight="600">F02</text>
<rect x="557.60" y="773.12" width="125.40" height="114.00" fill="#d9ccba" stroke="#908a7e" stroke-width="1"/>
<text x="620.30" y="830.33" font-family="Arial, sans-serif" font-size="11" fill="#303832" text-anchor="middle" font-weight="600">F03</text>
<rect x="369.50" y="716.12" width="110.58" height="33.06" fill="#d9ccba" stroke="#908a7e" stroke-width="1"/>
<text x="424.79" y="732.86" font-family="Arial, sans-serif" font-size="11" fill="#303832" text-anchor="middle" font-weight="600">F04</text>
<rect x="369.50" y="773.12" width="125.40" height="102.60" fill="#d9ccba" stroke="#908a7e" stroke-width="1"/>
<rect x="369.50" y="753.17" width="19.95" height="19.95" fill="#d9ccba" stroke="#908a7e" stroke-width="1"/>
<rect x="369.50" y="875.72" width="19.95" height="19.95" fill="#d9ccba" stroke="#908a7e" stroke-width="1"/>
<rect x="557.60" y="753.17" width="19.38" height="19.95" fill="#d9ccba" stroke="#908a7e" stroke-width="1"/>
<rect x="557.60" y="887.12" width="19.95" height="19.95" fill="#d9ccba" stroke="#908a7e" stroke-width="1"/>
<rect x="595.22" y="618.08" width="28.50" height="42.75" fill="#d9ccba" stroke="#908a7e" stroke-width="1"/>
<text x="609.47" y="639.66" font-family="Arial, sans-serif" font-size="11" fill="#303832" text-anchor="middle" font-weight="600">F10</text>
<rect x="635.12" y="647.72" width="57.00" height="57.00" fill="#d8ebe8" stroke="#908a7e" stroke-width="1"/>
<rect x="692.12" y="618.08" width="51.30" height="25.65" fill="#d9ccba" stroke="#908a7e" stroke-width="1"/>
<rect x="751.97" y="665.67" width="37.05" height="21.09" fill="#d9ccba" stroke="#908a7e" stroke-width="1"/>
<rect x="759.95" y="699.02" width="22.80" height="5.70" fill="#d9ccba" stroke="#908a7e" stroke-width="1"/>
<rect x="732.02" y="549.68" width="57.00" height="57.00" fill="#d9ccba" stroke="#908a7e" stroke-width="1"/>
<text x="760.52" y="578.39" font-family="Arial, sans-serif" font-size="11" fill="#303832" text-anchor="middle" font-weight="600">F15</text>
<rect x="606.62" y="569.63" width="37.05" height="37.05" fill="#d9ccba" stroke="#908a7e" stroke-width="1"/>
<text x="625.14" y="588.36" font-family="Arial, sans-serif" font-size="11" fill="#303832" text-anchor="middle" font-weight="600">F16</text>
<rect x="665.05" y="575.33" width="22.80" height="31.35" fill="#d9ccba" stroke="#908a7e" stroke-width="1"/>
<rect x="640.82" y="501.80" width="39.90" height="22.80" fill="#d9ccba" stroke="#908a7e" stroke-width="1"/>
<rect x="743.42" y="618.08" width="45.60" height="25.65" fill="#d9ccba" stroke="#908a7e" stroke-width="1"/>
<rect x="705.80" y="600.98" width="8.55" height="5.70" fill="#d9ccba" stroke="#908a7e" stroke-width="1"/>
<rect x="312.50" y="501.80" width="34.20" height="34.20" fill="#d9ccba" stroke="#908a7e" stroke-width="1"/>
<text x="329.60" y="519.11" font-family="Arial, sans-serif" font-size="11" fill="#303832" text-anchor="middle" font-weight="600">F21</text>
<rect x="346.70" y="501.80" width="17.10" height="34.20" fill="#d9ccba" stroke="#908a7e" stroke-width="1"/>
<rect x="363.80" y="501.80" width="39.90" height="34.20" fill="#d9ccba" stroke="#908a7e" stroke-width="1"/>
<text x="383.75" y="519.11" font-family="Arial, sans-serif" font-size="11" fill="#303832" text-anchor="middle" font-weight="600">F23</text>
<rect x="403.70" y="501.80" width="60.42" height="34.20" fill="#d9ccba" stroke="#908a7e" stroke-width="1"/>
<text x="433.91" y="519.11" font-family="Arial, sans-serif" font-size="11" fill="#303832" text-anchor="middle" font-weight="600">F24</text>
<rect x="464.12" y="501.80" width="34.20" height="34.20" fill="#d9ccba" stroke="#908a7e" stroke-width="1"/>
<text x="481.22" y="519.11" font-family="Arial, sans-serif" font-size="11" fill="#303832" text-anchor="middle" font-weight="600">F25</text>
<rect x="464.12" y="536.00" width="34.20" height="34.20" fill="#d9ccba" stroke="#908a7e" stroke-width="1"/>
<text x="481.22" y="553.31" font-family="Arial, sans-serif" font-size="11" fill="#303832" text-anchor="middle" font-weight="600">F27</text>
<rect x="464.12" y="604.40" width="34.20" height="33.06" fill="#d9ccba" stroke="#908a7e" stroke-width="1"/>
<text x="481.22" y="621.14" font-family="Arial, sans-serif" font-size="11" fill="#303832" text-anchor="middle" font-weight="600">F28</text>
<rect x="218.45" y="744.62" width="96.90" height="51.30" fill="#d9ccba" stroke="#908a7e" stroke-width="1"/>
<text x="266.90" y="770.48" font-family="Arial, sans-serif" font-size="11" fill="#303832" text-anchor="middle" font-weight="600">F29</text>
<rect x="341.00" y="738.92" width="17.10" height="153.90" fill="#d9ccba" stroke="#908a7e" stroke-width="1"/>
<rect x="241.25" y="818.72" width="51.30" height="28.50" fill="#d9ccba" stroke="#908a7e" stroke-width="1"/>
<text x="266.90" y="833.18" font-family="Arial, sans-serif" font-size="11" fill="#303832" text-anchor="middle" font-weight="600">F31</text>
<rect x="375.20" y="587.30" width="37.62" height="59.85" fill="#d9ccba" stroke="#908a7e" stroke-width="1"/>
<text x="394.01" y="617.43" font-family="Arial, sans-serif" font-size="11" fill="#303832" text-anchor="middle" font-weight="600">F33</text>
<rect x="352.40" y="590.15" width="22.80" height="22.80" fill="#d9ccba" stroke="#908a7e" stroke-width="1"/>
<rect x="352.40" y="621.50" width="22.80" height="22.80" fill="#d9ccba" stroke="#908a7e" stroke-width="1"/>
<rect x="215.60" y="615.80" width="102.60" height="51.30" fill="#d9ccba" stroke="#908a7e" stroke-width="1"/>
<text x="266.90" y="641.66" font-family="Arial, sans-serif" font-size="11" fill="#303832" text-anchor="middle" font-weight="600">F36</text>
<rect x="204.20" y="898.52" width="136.80" height="22.80" fill="#d9ccba" stroke="#908a7e" stroke-width="1"/>
<rect x="341.00" y="892.82" width="17.10" height="28.50" fill="#d9ccba" stroke="#908a7e" stroke-width="1"/>
<rect x="219.88" y="587.30" width="25.65" height="28.50" fill="#d9ccba" stroke="#908a7e" stroke-width="1"/>
<text x="232.70" y="601.76" font-family="Arial, sans-serif" font-size="11" fill="#303832" text-anchor="middle" font-weight="600">F40</text>
<rect x="254.07" y="587.30" width="25.65" height="28.50" fill="#d9ccba" stroke="#908a7e" stroke-width="1"/>
<text x="266.90" y="601.76" font-family="Arial, sans-serif" font-size="11" fill="#303832" text-anchor="middle" font-weight="600">F41</text>
<rect x="288.27" y="587.30" width="25.65" height="28.50" fill="#d9ccba" stroke="#908a7e" stroke-width="1"/>
<text x="301.10" y="601.76" font-family="Arial, sans-serif" font-size="11" fill="#303832" text-anchor="middle" font-weight="600">F42</text>
<rect x="219.88" y="667.10" width="25.65" height="28.50" fill="#d9ccba" stroke="#908a7e" stroke-width="1"/>
<text x="232.70" y="681.56" font-family="Arial, sans-serif" font-size="11" fill="#303832" text-anchor="middle" font-weight="600">F43</text>
<rect x="254.07" y="667.10" width="25.65" height="28.50" fill="#d9ccba" stroke="#908a7e" stroke-width="1"/>
<text x="266.90" y="681.56" font-family="Arial, sans-serif" font-size="11" fill="#303832" text-anchor="middle" font-weight="600">F44</text>
<rect x="288.27" y="667.10" width="25.65" height="28.50" fill="#d9ccba" stroke="#908a7e" stroke-width="1"/>
<text x="301.10" y="681.56" font-family="Arial, sans-serif" font-size="11" fill="#303832" text-anchor="middle" font-weight="600">F45</text>
<rect x="464.12" y="570.20" width="34.20" height="33.06" fill="#d9ccba" stroke="#908a7e" stroke-width="1"/>
<text x="481.22" y="586.94" font-family="Arial, sans-serif" font-size="11" fill="#303832" text-anchor="middle" font-weight="600">F59</text>
<rect x="635.12" y="618.08" width="57.00" height="29.64" fill="#e3d6be" stroke="#908a7e" stroke-width="1"/>
<rect x="369.50" y="773.12" width="125.40" height="102.60" fill="#ded7c9" stroke="#267460" stroke-width="2"/>
<text x="432.20" y="817.01" font-family="Arial, sans-serif" font-size="12" fill="#303832" text-anchor="middle" font-weight="600">F05</text>
<text x="432.20" y="832.40" font-family="Arial, sans-serif" font-size="11" fill="#303832" text-anchor="middle" font-weight="600">1800 × 2200</text>
<line x1="396.29" y1="536.00" x2="396.29" y2="587.30" stroke="#267460" stroke-width="2"/>
<line x1="392.29" y1="532.00" x2="400.29" y2="540.00" stroke="#267460" stroke-width="1.5"/>
<line x1="392.29" y1="583.30" x2="400.29" y2="591.30" stroke="#267460" stroke-width="1.5"/>
<rect x="380.06" y="552.15" width="32.46" height="19.00" fill="#fffdf8" stroke="none" stroke-width="1"/>
<text x="396.29" y="565.32" font-family="Arial, sans-serif" font-size="11" fill="#267460" text-anchor="middle" font-weight="600">900</text>
<line x1="412.82" y1="621.50" x2="464.12" y2="621.50" stroke="#267460" stroke-width="2"/>
<line x1="408.82" y1="617.50" x2="416.82" y2="625.50" stroke="#267460" stroke-width="1.5"/>
<line x1="460.12" y1="617.50" x2="468.12" y2="625.50" stroke="#267460" stroke-width="1.5"/>
<rect x="422.24" y="612.00" width="32.46" height="19.00" fill="#fffdf8" stroke="none" stroke-width="1"/>
<text x="438.47" y="625.17" font-family="Arial, sans-serif" font-size="11" fill="#267460" text-anchor="middle" font-weight="600">900</text>
<line x1="395.15" y1="647.15" x2="395.15" y2="704.72" stroke="#267460" stroke-width="2"/>
<line x1="391.15" y1="643.15" x2="399.15" y2="651.15" stroke="#267460" stroke-width="1.5"/>
<line x1="391.15" y1="700.72" x2="399.15" y2="708.72" stroke="#267460" stroke-width="1.5"/>
<rect x="375.51" y="666.43" width="39.28" height="19.00" fill="#fffdf8" stroke="none" stroke-width="1"/>
<text x="395.15" y="679.60" font-family="Arial, sans-serif" font-size="11" fill="#267460" text-anchor="middle" font-weight="600">1010</text>
<line x1="318.20" y1="636.32" x2="352.40" y2="636.32" stroke="#267460" stroke-width="2"/>
<line x1="314.20" y1="632.32" x2="322.20" y2="640.32" stroke="#267460" stroke-width="1.5"/>
<line x1="348.40" y1="632.32" x2="356.40" y2="640.32" stroke="#267460" stroke-width="1.5"/>
<rect x="319.07" y="626.82" width="32.46" height="19.00" fill="#fffdf8" stroke="none" stroke-width="1"/>
<text x="335.30" y="639.99" font-family="Arial, sans-serif" font-size="11" fill="#267460" text-anchor="middle" font-weight="600">600</text>
<line x1="175.70" y1="640.88" x2="215.60" y2="640.88" stroke="#267460" stroke-width="2"/>
<line x1="171.70" y1="636.88" x2="179.70" y2="644.88" stroke="#267460" stroke-width="1.5"/>
<line x1="211.60" y1="636.88" x2="219.60" y2="644.88" stroke="#267460" stroke-width="1.5"/>
<rect x="179.42" y="631.38" width="32.46" height="19.00" fill="#fffdf8" stroke="none" stroke-width="1"/>
<text x="195.65" y="644.55" font-family="Arial, sans-serif" font-size="11" fill="#267460" text-anchor="middle" font-weight="600">700</text>
<line x1="266.90" y1="695.60" x2="266.90" y2="744.62" stroke="#267460" stroke-width="2"/>
<line x1="262.90" y1="691.60" x2="270.90" y2="699.60" stroke="#267460" stroke-width="1.5"/>
<line x1="262.90" y1="740.62" x2="270.90" y2="748.62" stroke="#267460" stroke-width="1.5"/>
<rect x="250.67" y="710.61" width="32.46" height="19.00" fill="#fffdf8" stroke="none" stroke-width="1"/>
<text x="266.90" y="723.78" font-family="Arial, sans-serif" font-size="11" fill="#267460" text-anchor="middle" font-weight="600">860</text>
<line x1="315.35" y1="769.70" x2="341.00" y2="769.70" stroke="#a6502f" stroke-width="2"/>
<line x1="311.35" y1="765.70" x2="319.35" y2="773.70" stroke="#a6502f" stroke-width="1.5"/>
<line x1="337.00" y1="765.70" x2="345.00" y2="773.70" stroke="#a6502f" stroke-width="1.5"/>
<rect x="311.94" y="760.20" width="32.46" height="19.00" fill="#fffdf8" stroke="none" stroke-width="1"/>
<text x="328.18" y="773.37" font-family="Arial, sans-serif" font-size="11" fill="#a6502f" text-anchor="middle" font-weight="600">450</text>
<line x1="175.70" y1="769.70" x2="218.45" y2="769.70" stroke="#267460" stroke-width="2"/>
<line x1="171.70" y1="765.70" x2="179.70" y2="773.70" stroke="#267460" stroke-width="1.5"/>
<line x1="214.45" y1="765.70" x2="222.45" y2="773.70" stroke="#267460" stroke-width="1.5"/>
<rect x="180.84" y="760.20" width="32.46" height="19.00" fill="#fffdf8" stroke="none" stroke-width="1"/>
<text x="197.07" y="773.37" font-family="Arial, sans-serif" font-size="11" fill="#267460" text-anchor="middle" font-weight="600">750</text>
<line x1="269.18" y1="795.92" x2="269.18" y2="818.72" stroke="#a6502f" stroke-width="2"/>
<line x1="265.18" y1="791.92" x2="273.18" y2="799.92" stroke="#a6502f" stroke-width="1.5"/>
<line x1="265.18" y1="814.72" x2="273.18" y2="822.72" stroke="#a6502f" stroke-width="1.5"/>
<rect x="252.95" y="797.82" width="32.46" height="19.00" fill="#fffdf8" stroke="none" stroke-width="1"/>
<text x="269.18" y="810.99" font-family="Arial, sans-serif" font-size="11" fill="#a6502f" text-anchor="middle" font-weight="600">400</text>
<line x1="269.18" y1="847.22" x2="269.18" y2="898.52" stroke="#267460" stroke-width="2"/>
<line x1="265.18" y1="843.22" x2="273.18" y2="851.22" stroke="#267460" stroke-width="1.5"/>
<line x1="265.18" y1="894.52" x2="273.18" y2="902.52" stroke="#267460" stroke-width="1.5"/>
<rect x="252.95" y="863.37" width="32.46" height="19.00" fill="#fffdf8" stroke="none" stroke-width="1"/>
<text x="269.18" y="876.54" font-family="Arial, sans-serif" font-size="11" fill="#267460" text-anchor="middle" font-weight="600">900</text>
<line x1="543.92" y1="567.92" x2="595.22" y2="567.92" stroke="#267460" stroke-width="2"/>
<line x1="539.92" y1="563.92" x2="547.92" y2="571.92" stroke="#267460" stroke-width="1.5"/>
<line x1="591.22" y1="563.92" x2="599.22" y2="571.92" stroke="#267460" stroke-width="1.5"/>
<rect x="553.34" y="558.42" width="32.46" height="19.00" fill="#fffdf8" stroke="none" stroke-width="1"/>
<text x="569.57" y="571.59" font-family="Arial, sans-serif" font-size="11" fill="#267460" text-anchor="middle" font-weight="600">900</text>
<line x1="543.92" y1="627.20" x2="595.22" y2="627.20" stroke="#267460" stroke-width="2"/>
<line x1="539.92" y1="623.20" x2="547.92" y2="631.20" stroke="#267460" stroke-width="1.5"/>
<line x1="591.22" y1="623.20" x2="599.22" y2="631.20" stroke="#267460" stroke-width="1.5"/>
<rect x="553.34" y="617.70" width="32.46" height="19.00" fill="#fffdf8" stroke="none" stroke-width="1"/>
<text x="569.57" y="630.87" font-family="Arial, sans-serif" font-size="11" fill="#267460" text-anchor="middle" font-weight="600">900</text>
<line x1="683.00" y1="826.70" x2="755.96" y2="826.70" stroke="#267460" stroke-width="2"/>
<line x1="679.00" y1="822.70" x2="687.00" y2="830.70" stroke="#267460" stroke-width="1.5"/>
<line x1="751.96" y1="822.70" x2="759.96" y2="830.70" stroke="#267460" stroke-width="1.5"/>
<rect x="699.84" y="817.20" width="39.28" height="19.00" fill="#fffdf8" stroke="none" stroke-width="1"/>
<text x="719.48" y="830.37" font-family="Arial, sans-serif" font-size="11" fill="#267460" text-anchor="middle" font-weight="600">1280</text>
<line x1="648.80" y1="716.12" x2="648.80" y2="773.12" stroke="#267460" stroke-width="2"/>
<line x1="644.80" y1="712.12" x2="652.80" y2="720.12" stroke="#267460" stroke-width="1.5"/>
<line x1="644.80" y1="769.12" x2="652.80" y2="777.12" stroke="#267460" stroke-width="1.5"/>
<rect x="629.16" y="735.12" width="39.28" height="19.00" fill="#fffdf8" stroke="none" stroke-width="1"/>
<text x="648.80" y="748.29" font-family="Arial, sans-serif" font-size="11" fill="#267460" text-anchor="middle" font-weight="600">1000</text>
<line x1="648.80" y1="887.12" x2="648.80" y2="921.32" stroke="#267460" stroke-width="2"/>
<line x1="644.80" y1="883.12" x2="652.80" y2="891.12" stroke="#267460" stroke-width="1.5"/>
<line x1="644.80" y1="917.32" x2="652.80" y2="925.32" stroke="#267460" stroke-width="1.5"/>
<rect x="632.57" y="894.72" width="32.46" height="19.00" fill="#fffdf8" stroke="none" stroke-width="1"/>
<text x="648.80" y="907.89" font-family="Arial, sans-serif" font-size="11" fill="#267460" text-anchor="middle" font-weight="600">600</text>
<line x1="494.90" y1="826.70" x2="546.20" y2="826.70" stroke="#267460" stroke-width="2"/>
<line x1="490.90" y1="822.70" x2="498.90" y2="830.70" stroke="#267460" stroke-width="1.5"/>
<line x1="542.20" y1="822.70" x2="550.20" y2="830.70" stroke="#267460" stroke-width="1.5"/>
<rect x="504.32" y="817.20" width="32.46" height="19.00" fill="#fffdf8" stroke="none" stroke-width="1"/>
<text x="520.55" y="830.37" font-family="Arial, sans-serif" font-size="11" fill="#267460" text-anchor="middle" font-weight="600">900</text>
<line x1="440.75" y1="749.18" x2="440.75" y2="773.12" stroke="#a6502f" stroke-width="2"/>
<line x1="436.75" y1="745.18" x2="444.75" y2="753.18" stroke="#a6502f" stroke-width="1.5"/>
<line x1="436.75" y1="769.12" x2="444.75" y2="777.12" stroke="#a6502f" stroke-width="1.5"/>
<rect x="424.52" y="751.65" width="32.46" height="19.00" fill="#fffdf8" stroke="none" stroke-width="1"/>
<text x="440.75" y="764.82" font-family="Arial, sans-serif" font-size="11" fill="#a6502f" text-anchor="middle" font-weight="600">420</text>
<line x1="440.75" y1="875.72" x2="440.75" y2="921.32" stroke="#267460" stroke-width="2"/>
<line x1="436.75" y1="871.72" x2="444.75" y2="879.72" stroke="#267460" stroke-width="1.5"/>
<line x1="436.75" y1="917.32" x2="444.75" y2="925.32" stroke="#267460" stroke-width="1.5"/>
<rect x="424.52" y="889.02" width="32.46" height="19.00" fill="#fffdf8" stroke="none" stroke-width="1"/>
<text x="440.75" y="902.19" font-family="Arial, sans-serif" font-size="11" fill="#267460" text-anchor="middle" font-weight="600">800</text>
<line x1="692.12" y1="647.72" x2="692.12" y2="704.72" stroke="#267460" stroke-width="2" stroke-dasharray="4 3"/>
<text x="106.00" y="216.00" font-family="Arial, sans-serif" font-size="20" fill="#303832" text-anchor="start" font-weight="600">С ↑</text>
<text x="92.00" y="670.00" font-family="Arial, sans-serif" font-size="13" fill="#697066" text-anchor="start" font-weight="400" transform="rotate(-90 92 670)">ОЗЕРО / ЗАПАД</text>
<text x="935.00" y="215.00" font-family="Arial, sans-serif" font-size="23" fill="#303832" text-anchor="start" font-weight="600">ИЗМЕНЕНИЯ 28.09</text>
<text x="935.00" y="259.00" font-family="Arial, sans-serif" font-size="18" fill="#267460" text-anchor="start" font-weight="600">Хозяйский санузел</text>
<text x="935.00" y="288.00" font-family="Arial, sans-serif" font-size="15" fill="#303832" text-anchor="start" font-weight="400">Душ 1000 × 1000 у южной стены,</text>
<text x="935.00" y="313.00" font-family="Arial, sans-serif" font-size="15" fill="#303832" text-anchor="start" font-weight="400">вход с востока внутрь; D05 +325 мм.</text>
<text x="935.00" y="338.00" font-family="Arial, sans-serif" font-size="15" fill="#303832" text-anchor="start" font-weight="400">Северо-западный остаток — мокрые полки.</text>
<text x="935.00" y="384.00" font-family="Arial, sans-serif" font-size="18" fill="#267460" text-anchor="start" font-weight="600">Спальня 2</text>
<text x="935.00" y="413.00" font-family="Arial, sans-serif" font-size="15" fill="#303832" text-anchor="start" font-weight="400">F05 · 1800 × 2200 вместо 2000 × 2200.</text>
<text x="935.00" y="438.00" font-family="Arial, sans-serif" font-size="15" fill="#303832" text-anchor="start" font-weight="400">F07 сдвинута на 200 мм к северу.</text>
<text x="935.00" y="463.00" font-family="Arial, sans-serif" font-size="15" fill="#303832" text-anchor="start" font-weight="400">Южный проход B6: 600 → 800 мм.</text>
<text x="935.00" y="509.00" font-family="Arial, sans-serif" font-size="18" fill="#267460" text-anchor="start" font-weight="600">Сохраняется</text>
<text x="935.00" y="538.00" font-family="Arial, sans-serif" font-size="15" fill="#303832" text-anchor="start" font-weight="400">Основной дом 11 560 × 8160 мм.</text>
<text x="935.00" y="563.00" font-family="Arial, sans-serif" font-size="15" fill="#303832" text-anchor="start" font-weight="400">Комнаты, перегородки, хозяйская спальня</text>
<text x="935.00" y="588.00" font-family="Arial, sans-serif" font-size="15" fill="#303832" text-anchor="start" font-weight="400">и выбранные контуры лаунджа/кладовой.</text>
<text x="935.00" y="885.00" font-family="Arial, sans-serif" font-size="15" fill="#a6502f" text-anchor="start" font-weight="400">Спальня 2: изножье 900, шкаф 420, юг 800.</text>
<text x="935.00" y="918.00" font-family="Arial, sans-serif" font-size="15" fill="#a6502f" text-anchor="start" font-weight="400">420 мм у шкафа остаются узким местом.</text>
<text x="935.00" y="968.00" font-family="Arial, sans-serif" font-size="14" fill="#697066" text-anchor="start" font-weight="400">Корпуса закрыты. Открытые двери и ящики</text>
<text x="935.00" y="991.00" font-family="Arial, sans-serif" font-size="14" fill="#697066" text-anchor="start" font-weight="400">не включены в измеренные проходы.</text>
<line x1="64.00" y1="1094.00" x2="1616.00" y2="1094.00" stroke="#c7c9c0" stroke-width="1"/>
<text x="64.00" y="1126.00" font-family="Arial, sans-serif" font-size="15" fill="#697066" text-anchor="start" font-weight="400">DBR-P11 · текущая расстановка 28.09.2026 · север вверх · озеро на западе</text>
<text x="64.00" y="1153.00" font-family="Arial, sans-serif" font-size="14" fill="#697066" text-anchor="start" font-weight="400">Номинальные корпуса до отделки; фурнитура и чистые проёмы TBC. Не для строительства.</text>
<text x="1616.00" y="1126.00" font-family="Arial, sans-serif" font-size="14" fill="#303832" text-anchor="end" font-weight="400">INT-01 · INTERIOR-2026-09-28-R2</text>
<text x="1616.00" y="1153.00" font-family="Arial, sans-serif" font-size="14" fill="#303832" text-anchor="end" font-weight="400">ДЛЯ СОГЛАСОВАНИЯ</text>
</svg>